<svg xmlns="http://www.w3.org/2000/svg" xmlns:xlink="http://www.w3.org/1999/xlink" viewBox="0 0 114.97 59.22">
    <defs>
        <style>
            @import url('https://fonts.googleapis.com/css?family=Open+Sans');
            .cls-1,.cls-5,.cls-7{fill:none;}.cls-2{opacity:0.7;}.cls-3{clip-path:url(#clip-path);}.cls-4{fill:#96b3c9;}.cls-5{stroke:#96b3c9;}.cls-5,.cls-7{stroke-miterlimit:10;stroke-width:0.98px;}.cls-6{fill:#e7edf2;}.cls-7{stroke:#474747;}.cls-8,.cls-9{fill:#474747;}.cls-9{font-size:10.6px;font-family:BlairMdITCTTMedium,
            BlairMdITC TT;}.cls-10{letter-spacing:-0.12em;}.cls-11{letter-spacing:0em;}.cls-12{font-family:'Open Sans',sans-serif;font-size: 8px;fill: #474747;}
        </style>
        <clipPath id="clip-path">
            <rect class="cls-1" x="2.57" y="2.57" width="112.4" height="56.65"/>
        </clipPath>
    </defs>
    <title>Ресурс 1</title>
    <g id="Слой_2" data-name="Слой 2">
        <g id="Слой_1-2" data-name="Слой 1">
            <g class="cls-2">
                <g class="cls-3">
                    <path class="cls-4"
                          d="M108.48,58.72H9.06a6,6,0,0,1-6-6V9.06a6,6,0,0,1,6-6h99.42a6,6,0,0,1,6,6V52.72a6,6,0,0,1-6,6"/>
                    <rect class="cls-5" x="3.06" y="3.06" width="111.42" height="55.66" rx="6" ry="6"/>
                </g>
            </g>
            <path class="cls-6"
                  d="M105.91,56.16H6.49a6,6,0,0,1-6-6V6.49a6,6,0,0,1,6-6h99.42a6,6,0,0,1,6,6V50.16a6,6,0,0,1-6,6"/>
            <rect class="cls-7" x="0.49" y="0.49" width="111.42" height="55.66" rx="6" ry="6"/>
            <text class="cls-12" transform="translate(13, 14)">01001010011100101110</text>
            <text class="cls-12" transform="translate(13, 26)">10110100101101001101</text>
            <text class="cls-12" transform="translate(13, 38)">01100110101100100010</text>
            <text class="cls-9" transform="translate(42.32 50.27)">DATA</text>
        </g>
    </g>
</svg>
