<svg xmlns="http://www.w3.org/2000/svg" xmlns:xlink="http://www.w3.org/1999/xlink" viewBox="0 0 114.97 59.22"><defs><style>.cls-1,.cls-5,.cls-7{fill:none;}.cls-2{opacity:0.7;}.cls-3{clip-path:url(#clip-path);}.cls-4{fill:#96b3c9;}.cls-5{stroke:#96b3c9;}.cls-5,.cls-7{stroke-miterlimit:10;stroke-width:0.98px;}.cls-6{fill:#e7edf2;}.cls-7{stroke:#474747;}.cls-8,.cls-9{fill:#474747;}.cls-9{font-size:11.25px;font-family:BlairMdITCTTMedium, BlairMdITC TT;letter-spacing:-0.04em;}.cls-10{letter-spacing:-0.12em;}.cls-11{letter-spacing:0em;}</style><clipPath id="clip-path"><rect class="cls-1" x="2.57" y="2.57" width="112.4" height="56.65"/></clipPath></defs><title>Ресурс 1</title><g id="Слой_2" data-name="Слой 2"><g id="Слой_1-2" data-name="Слой 1"><g class="cls-2"><g class="cls-3"><path class="cls-4" d="M108.48,58.72H9.06a6,6,0,0,1-6-6V9.06a6,6,0,0,1,6-6h99.42a6,6,0,0,1,6,6V52.72a6,6,0,0,1-6,6"/><rect class="cls-5" x="3.06" y="3.06" width="111.42" height="55.66" rx="6" ry="6"/></g></g><path class="cls-6" d="M105.91,56.16H6.49a6,6,0,0,1-6-6V6.49a6,6,0,0,1,6-6h99.42a6,6,0,0,1,6,6V50.16a6,6,0,0,1-6,6"/><rect class="cls-7" x="0.49" y="0.49" width="111.42" height="55.66" rx="6" ry="6"/><path class="cls-8" d="M7.65,13.75a1.21,1.21,0,0,1-1.11-.88,6.64,6.64,0,0,1-.38-2.54q0-3.41,1.49-3.41a1.22,1.22,0,0,1,1.13.88,6.62,6.62,0,0,1,.38,2.54q0,3.42-1.5,3.42m0-.7c.31,0,.55-.21.69-.64a6.92,6.92,0,0,0,.22-2.08,6.89,6.89,0,0,0-.22-2.07c-.15-.43-.38-.64-.69-.64s-.54.21-.68.63a7.06,7.06,0,0,0-.22,2.07A7.09,7.09,0,0,0,7,12.41c.14.42.37.64.68.64"/><path class="cls-8" d="M12.07,13.66H11.5V9.51c0-.37,0-.91,0-1.64a5.67,5.67,0,0,1-.39.51l-.47.55-.31-.56L11.58,7h.48Z"/><path class="cls-8" d="M15.54,13.75a1.21,1.21,0,0,1-1.11-.88A6.65,6.65,0,0,1,14,10.33q0-3.41,1.49-3.41a1.22,1.22,0,0,1,1.13.88A6.62,6.62,0,0,1,17,10.33q0,3.42-1.5,3.42m0-.7c.31,0,.55-.21.69-.64a6.92,6.92,0,0,0,.22-2.08,6.89,6.89,0,0,0-.22-2.07c-.15-.43-.38-.64-.69-.64s-.54.21-.68.63a7.07,7.07,0,0,0-.22,2.07,7.09,7.09,0,0,0,.22,2.08c.15.42.37.64.68.64"/><path class="cls-8" d="M19.49,13.75a1.21,1.21,0,0,1-1.11-.88A6.64,6.64,0,0,1,18,10.33q0-3.41,1.49-3.41a1.22,1.22,0,0,1,1.13.88A6.62,6.62,0,0,1,21,10.33q0,3.42-1.5,3.42m0-.7c.31,0,.55-.21.69-.64a6.92,6.92,0,0,0,.22-2.08,6.89,6.89,0,0,0-.22-2.07c-.15-.43-.38-.64-.69-.64s-.54.21-.68.63a7.06,7.06,0,0,0-.22,2.07,7.09,7.09,0,0,0,.22,2.08c.14.42.37.64.68.64"/><path class="cls-8" d="M23.9,13.66h-.56V9.51c0-.37,0-.91,0-1.64a5.67,5.67,0,0,1-.39.51l-.47.55-.31-.56L23.42,7h.48Z"/><path class="cls-8" d="M27.37,13.75a1.21,1.21,0,0,1-1.11-.88,6.64,6.64,0,0,1-.38-2.54q0-3.41,1.49-3.41a1.22,1.22,0,0,1,1.13.88,6.62,6.62,0,0,1,.38,2.54q0,3.42-1.5,3.42m0-.7c.31,0,.55-.21.69-.64a6.92,6.92,0,0,0,.22-2.08,6.89,6.89,0,0,0-.22-2.07c-.15-.43-.38-.64-.69-.64s-.54.21-.68.63a7.06,7.06,0,0,0-.22,2.07,7.09,7.09,0,0,0,.22,2.08c.14.42.37.64.68.64"/><path class="cls-8" d="M31.79,13.66h-.56V9.51c0-.37,0-.91,0-1.64a5.58,5.58,0,0,1-.39.51l-.47.55-.31-.56L31.31,7h.48Z"/><path class="cls-8" d="M35.26,13.75a1.21,1.21,0,0,1-1.11-.88,6.64,6.64,0,0,1-.38-2.54q0-3.41,1.49-3.41a1.22,1.22,0,0,1,1.13.88,6.62,6.62,0,0,1,.38,2.54q0,3.42-1.5,3.42m0-.7c.31,0,.55-.21.69-.64a6.92,6.92,0,0,0,.22-2.08A6.89,6.89,0,0,0,36,8.26c-.15-.43-.38-.64-.69-.64s-.54.21-.68.63a7.07,7.07,0,0,0-.22,2.07,7.09,7.09,0,0,0,.22,2.08c.15.42.37.64.68.64"/><path class="cls-8" d="M39.21,13.75a1.21,1.21,0,0,1-1.11-.88,6.64,6.64,0,0,1-.38-2.54q0-3.41,1.49-3.41a1.22,1.22,0,0,1,1.13.88,6.62,6.62,0,0,1,.38,2.54q0,3.42-1.5,3.42m0-.7c.31,0,.55-.21.69-.64a6.92,6.92,0,0,0,.22-2.08,6.89,6.89,0,0,0-.22-2.07c-.15-.43-.38-.64-.69-.64s-.54.21-.68.63a7.06,7.06,0,0,0-.22,2.07,7.09,7.09,0,0,0,.22,2.08c.15.42.37.64.68.64"/><path class="cls-8" d="M43.62,13.66h-.56V9.51c0-.37,0-.91,0-1.64a5.6,5.6,0,0,1-.39.51l-.47.55-.31-.56L43.14,7h.48Z"/><path class="cls-8" d="M47.56,13.66H47V9.51c0-.37,0-.91,0-1.64a5.56,5.56,0,0,1-.39.51l-.47.55-.31-.56L47.08,7h.48Z"/><path class="cls-8" d="M51.51,13.66h-.56V9.51c0-.37,0-.91,0-1.64a5.58,5.58,0,0,1-.39.51l-.47.55-.31-.56L51,7h.48Z"/><path class="cls-8" d="M55,13.75a1.21,1.21,0,0,1-1.11-.88,6.64,6.64,0,0,1-.38-2.54q0-3.41,1.49-3.41a1.22,1.22,0,0,1,1.13.88,6.62,6.62,0,0,1,.38,2.54q0,3.42-1.5,3.42m0-.7c.31,0,.55-.21.69-.64a6.92,6.92,0,0,0,.22-2.08,6.89,6.89,0,0,0-.22-2.07c-.15-.43-.38-.64-.69-.64s-.54.21-.68.63a7.07,7.07,0,0,0-.22,2.07,7.09,7.09,0,0,0,.22,2.08c.14.42.37.64.68.64"/><path class="cls-8" d="M58.93,13.75a1.21,1.21,0,0,1-1.11-.88,6.65,6.65,0,0,1-.38-2.54q0-3.41,1.49-3.41a1.22,1.22,0,0,1,1.13.88,6.62,6.62,0,0,1,.38,2.54q0,3.42-1.5,3.42m0-.7c.31,0,.55-.21.69-.64a6.92,6.92,0,0,0,.22-2.08,6.89,6.89,0,0,0-.22-2.07c-.15-.43-.38-.64-.69-.64s-.54.21-.68.63A7.07,7.07,0,0,0,58,10.33a7.09,7.09,0,0,0,.22,2.08c.15.42.37.64.68.64"/><path class="cls-8" d="M63.34,13.66h-.56V9.51c0-.37,0-.91,0-1.64a5.58,5.58,0,0,1-.39.51l-.47.55-.31-.56L62.86,7h.48Z"/><path class="cls-8" d="M66.82,13.75a1.21,1.21,0,0,1-1.11-.88,6.64,6.64,0,0,1-.38-2.54q0-3.41,1.49-3.41a1.22,1.22,0,0,1,1.13.88,6.62,6.62,0,0,1,.38,2.54q0,3.42-1.5,3.42m0-.7c.31,0,.55-.21.69-.64a6.92,6.92,0,0,0,.22-2.08,6.89,6.89,0,0,0-.22-2.07c-.15-.43-.38-.64-.69-.64s-.54.21-.68.63a7.07,7.07,0,0,0-.22,2.07,7.09,7.09,0,0,0,.22,2.08c.15.42.37.64.68.64"/><path class="cls-8" d="M71.23,13.66h-.56V9.51c0-.37,0-.91,0-1.64a5.58,5.58,0,0,1-.39.51l-.47.55-.31-.56L70.75,7h.48Z"/><path class="cls-8" d="M75.17,13.66h-.56V9.51c0-.37,0-.91,0-1.64a5.58,5.58,0,0,1-.39.51l-.47.55-.31-.56L74.69,7h.48Z"/><path class="cls-8" d="M79.12,13.66h-.56V9.51c0-.37,0-.91,0-1.64a5.65,5.65,0,0,1-.39.51l-.47.55-.31-.56L78.64,7h.48Z"/><path class="cls-8" d="M82.59,13.75a1.21,1.21,0,0,1-1.11-.88,6.64,6.64,0,0,1-.38-2.54q0-3.41,1.49-3.41a1.22,1.22,0,0,1,1.13.88,6.62,6.62,0,0,1,.38,2.54q0,3.42-1.5,3.42m0-.7c.31,0,.55-.21.69-.64a6.92,6.92,0,0,0,.22-2.08,6.89,6.89,0,0,0-.22-2.07c-.15-.43-.38-.64-.69-.64s-.54.21-.68.63a7.06,7.06,0,0,0-.22,2.07,7.09,7.09,0,0,0,.22,2.08c.15.42.37.64.68.64"/><path class="cls-8" d="M87,13.66h-.56V9.51c0-.37,0-.91,0-1.64a5.59,5.59,0,0,1-.39.51l-.47.55-.31-.56L86.53,7H87Z"/><path class="cls-8" d="M90.48,13.75a1.21,1.21,0,0,1-1.11-.88A6.64,6.64,0,0,1,89,10.33q0-3.41,1.49-3.41a1.22,1.22,0,0,1,1.12.88A6.62,6.62,0,0,1,92,10.33q0,3.42-1.5,3.42m0-.7c.31,0,.55-.21.69-.64a6.92,6.92,0,0,0,.22-2.08,6.89,6.89,0,0,0-.22-2.07c-.15-.43-.38-.64-.69-.64s-.54.21-.68.63a7.07,7.07,0,0,0-.22,2.07,7.09,7.09,0,0,0,.22,2.08c.14.42.37.64.68.64"/><path class="cls-8" d="M94.9,13.66h-.56V9.51c0-.37,0-.91,0-1.64a5.58,5.58,0,0,1-.39.51l-.47.55-.31-.56L94.42,7h.48Z"/><path class="cls-8" d="M98.37,13.75a1.21,1.21,0,0,1-1.11-.88,6.64,6.64,0,0,1-.38-2.54q0-3.41,1.49-3.41a1.22,1.22,0,0,1,1.12.88,6.62,6.62,0,0,1,.38,2.54q0,3.42-1.5,3.42m0-.7c.31,0,.55-.21.69-.64a6.92,6.92,0,0,0,.22-2.08,6.89,6.89,0,0,0-.22-2.07c-.15-.43-.38-.64-.69-.64s-.54.21-.68.63a7.07,7.07,0,0,0-.22,2.07,7.09,7.09,0,0,0,.22,2.08c.15.42.37.64.68.64"/><path class="cls-8" d="M102.32,13.75a1.21,1.21,0,0,1-1.11-.88,6.65,6.65,0,0,1-.38-2.54q0-3.41,1.49-3.41a1.22,1.22,0,0,1,1.13.88,6.62,6.62,0,0,1,.38,2.54q0,3.42-1.5,3.42m0-.7c.31,0,.55-.21.69-.64a6.92,6.92,0,0,0,.22-2.08A6.89,6.89,0,0,0,103,8.26c-.15-.43-.38-.64-.69-.64s-.54.21-.68.63a7.07,7.07,0,0,0-.22,2.07,7.09,7.09,0,0,0,.22,2.08c.15.42.37.64.68.64"/><path class="cls-8" d="M8.12,25.83H7.56V21.68c0-.37,0-.92,0-1.64a5.58,5.58,0,0,1-.39.51l-.47.55-.31-.56,1.23-1.36h.48Z"/><path class="cls-8" d="M11.6,25.92A1.21,1.21,0,0,1,10.48,25a6.64,6.64,0,0,1-.38-2.54q0-3.41,1.49-3.41a1.22,1.22,0,0,1,1.13.88,6.62,6.62,0,0,1,.38,2.54q0,3.42-1.5,3.42m0-.7c.31,0,.55-.21.69-.64a6.92,6.92,0,0,0,.22-2.08,6.88,6.88,0,0,0-.22-2.07c-.15-.43-.38-.64-.69-.64s-.54.21-.68.63a7.07,7.07,0,0,0-.22,2.07,7.1,7.1,0,0,0,.22,2.08c.14.42.37.64.68.64"/><path class="cls-8" d="M16,25.83h-.56V21.68c0-.37,0-.92,0-1.64a5.58,5.58,0,0,1-.39.51l-.47.55-.31-.56,1.23-1.36H16Z"/><path class="cls-8" d="M20,25.83h-.56V21.68c0-.37,0-.92,0-1.64a5.58,5.58,0,0,1-.39.51l-.47.55-.31-.56,1.23-1.36H20Z"/><path class="cls-8" d="M23.43,25.92A1.21,1.21,0,0,1,22.32,25a6.65,6.65,0,0,1-.38-2.54q0-3.41,1.49-3.41a1.22,1.22,0,0,1,1.13.88,6.62,6.62,0,0,1,.38,2.54q0,3.42-1.5,3.42m0-.7c.31,0,.55-.21.69-.64a6.92,6.92,0,0,0,.22-2.08,6.88,6.88,0,0,0-.22-2.07c-.15-.43-.38-.64-.69-.64s-.54.21-.68.63a7.07,7.07,0,0,0-.22,2.07,7.1,7.1,0,0,0,.22,2.08c.14.42.37.64.68.64"/><path class="cls-8" d="M27.84,25.83h-.56V21.68c0-.37,0-.92,0-1.64a5.58,5.58,0,0,1-.39.51l-.47.55-.31-.56,1.23-1.36h.48Z"/><path class="cls-8" d="M31.32,25.92A1.21,1.21,0,0,1,30.21,25a6.64,6.64,0,0,1-.38-2.54q0-3.41,1.49-3.41a1.22,1.22,0,0,1,1.12.88,6.62,6.62,0,0,1,.38,2.54q0,3.42-1.5,3.42m0-.7c.31,0,.55-.21.69-.64a6.92,6.92,0,0,0,.22-2.08A6.89,6.89,0,0,0,32,20.43c-.15-.43-.38-.64-.69-.64s-.54.21-.68.63a7.06,7.06,0,0,0-.22,2.07,7.1,7.1,0,0,0,.22,2.08c.14.42.37.64.68.64"/><path class="cls-8" d="M35.26,25.92A1.21,1.21,0,0,1,34.15,25a6.65,6.65,0,0,1-.38-2.54q0-3.41,1.49-3.41a1.22,1.22,0,0,1,1.13.88,6.62,6.62,0,0,1,.38,2.54q0,3.42-1.5,3.42m0-.7c.31,0,.55-.21.69-.64a6.92,6.92,0,0,0,.22-2.08A6.88,6.88,0,0,0,36,20.43c-.15-.43-.38-.64-.69-.64s-.54.21-.68.63a7.07,7.07,0,0,0-.22,2.07,7.1,7.1,0,0,0,.22,2.08c.15.42.37.64.68.64"/><path class="cls-8" d="M39.68,25.83h-.56V21.68c0-.37,0-.92,0-1.64a5.58,5.58,0,0,1-.39.51l-.47.55L38,20.55l1.23-1.36h.48Z"/><path class="cls-8" d="M43.15,25.92A1.21,1.21,0,0,1,42,25a6.64,6.64,0,0,1-.38-2.54q0-3.41,1.49-3.41a1.22,1.22,0,0,1,1.13.88,6.62,6.62,0,0,1,.38,2.54q0,3.42-1.5,3.42m0-.7c.31,0,.55-.21.69-.64a6.92,6.92,0,0,0,.22-2.08,6.89,6.89,0,0,0-.22-2.07c-.15-.43-.38-.64-.69-.64s-.54.21-.68.63a7.07,7.07,0,0,0-.22,2.07,7.1,7.1,0,0,0,.22,2.08c.15.42.37.64.68.64"/><path class="cls-8" d="M47.56,25.83H47V21.68c0-.37,0-.92,0-1.64a5.56,5.56,0,0,1-.39.51l-.47.55-.31-.56,1.23-1.36h.48Z"/><path class="cls-8" d="M51.51,25.83h-.56V21.68c0-.37,0-.92,0-1.64a5.58,5.58,0,0,1-.39.51l-.47.55-.31-.56L51,19.19h.48Z"/><path class="cls-8" d="M55,25.92A1.21,1.21,0,0,1,53.87,25a6.64,6.64,0,0,1-.38-2.54q0-3.41,1.49-3.41a1.22,1.22,0,0,1,1.13.88,6.62,6.62,0,0,1,.38,2.54q0,3.42-1.5,3.42m0-.7c.31,0,.55-.21.69-.64a6.92,6.92,0,0,0,.22-2.08,6.88,6.88,0,0,0-.22-2.07c-.15-.43-.38-.64-.69-.64s-.54.21-.68.63a7.07,7.07,0,0,0-.22,2.07,7.1,7.1,0,0,0,.22,2.08c.14.42.37.64.68.64"/><path class="cls-8" d="M59.4,25.83h-.56V21.68c0-.37,0-.92,0-1.64a5.58,5.58,0,0,1-.39.51l-.47.55-.31-.56,1.23-1.36h.48Z"/><path class="cls-8" d="M62.87,25.92A1.21,1.21,0,0,1,61.76,25a6.64,6.64,0,0,1-.38-2.54q0-3.41,1.49-3.41A1.22,1.22,0,0,1,64,20a6.62,6.62,0,0,1,.38,2.54q0,3.42-1.5,3.42m0-.7c.31,0,.55-.21.69-.64a6.92,6.92,0,0,0,.22-2.08,6.89,6.89,0,0,0-.22-2.07c-.15-.43-.38-.64-.69-.64s-.54.21-.68.63A7.06,7.06,0,0,0,62,22.5a7.1,7.1,0,0,0,.22,2.08c.14.42.37.64.68.64"/><path class="cls-8" d="M66.82,25.92A1.21,1.21,0,0,1,65.7,25a6.65,6.65,0,0,1-.38-2.54q0-3.41,1.49-3.41a1.22,1.22,0,0,1,1.13.88,6.62,6.62,0,0,1,.38,2.54q0,3.42-1.5,3.42m0-.7c.31,0,.55-.21.69-.64a6.92,6.92,0,0,0,.22-2.08,6.88,6.88,0,0,0-.22-2.07c-.15-.43-.38-.64-.69-.64s-.54.21-.68.63a7.07,7.07,0,0,0-.22,2.07,7.1,7.1,0,0,0,.22,2.08c.15.42.37.64.68.64"/><path class="cls-8" d="M71.23,25.83h-.56V21.68c0-.37,0-.92,0-1.64a5.58,5.58,0,0,1-.39.51l-.47.55-.31-.56,1.23-1.36h.48Z"/><path class="cls-8" d="M75.17,25.83h-.56V21.68c0-.37,0-.92,0-1.64a5.58,5.58,0,0,1-.39.51l-.47.55-.31-.56,1.23-1.36h.48Z"/><path class="cls-8" d="M78.65,25.92A1.21,1.21,0,0,1,77.54,25a6.65,6.65,0,0,1-.38-2.54q0-3.41,1.49-3.41a1.22,1.22,0,0,1,1.13.88,6.62,6.62,0,0,1,.38,2.54q0,3.42-1.5,3.42m0-.7c.31,0,.55-.21.69-.64a6.92,6.92,0,0,0,.22-2.08,6.88,6.88,0,0,0-.22-2.07c-.15-.43-.38-.64-.69-.64s-.54.21-.68.63a7.07,7.07,0,0,0-.22,2.07A7.1,7.1,0,0,0,78,24.58c.14.42.37.64.68.64"/><path class="cls-8" d="M83.06,25.83H82.5V21.68c0-.37,0-.92,0-1.64a5.58,5.58,0,0,1-.39.51l-.47.55-.31-.56,1.23-1.36h.48Z"/><path class="cls-8" d="M86.54,25.92A1.21,1.21,0,0,1,85.43,25,6.64,6.64,0,0,1,85,22.5q0-3.41,1.49-3.41a1.22,1.22,0,0,1,1.12.88A6.62,6.62,0,0,1,88,22.5q0,3.42-1.5,3.42m0-.7c.31,0,.55-.21.69-.64a6.92,6.92,0,0,0,.22-2.08,6.89,6.89,0,0,0-.22-2.07c-.15-.43-.38-.64-.69-.64s-.54.21-.68.63a7.06,7.06,0,0,0-.22,2.07,7.1,7.1,0,0,0,.22,2.08c.14.42.37.64.68.64"/><path class="cls-8" d="M90.48,25.92A1.21,1.21,0,0,1,89.37,25,6.65,6.65,0,0,1,89,22.5q0-3.41,1.49-3.41a1.22,1.22,0,0,1,1.12.88A6.62,6.62,0,0,1,92,22.5q0,3.42-1.5,3.42m0-.7c.31,0,.55-.21.69-.64a6.92,6.92,0,0,0,.22-2.08,6.88,6.88,0,0,0-.22-2.07c-.15-.43-.38-.64-.69-.64s-.54.21-.68.63a7.07,7.07,0,0,0-.22,2.07,7.1,7.1,0,0,0,.22,2.08c.14.42.37.64.68.64"/><path class="cls-8" d="M94.9,25.83h-.56V21.68c0-.37,0-.92,0-1.64a5.58,5.58,0,0,1-.39.51l-.47.55-.31-.56,1.23-1.36h.48Z"/><path class="cls-8" d="M98.37,25.92A1.21,1.21,0,0,1,97.26,25a6.64,6.64,0,0,1-.38-2.54q0-3.41,1.49-3.41A1.22,1.22,0,0,1,99.5,20a6.62,6.62,0,0,1,.38,2.54q0,3.42-1.5,3.42m0-.7c.31,0,.55-.21.69-.64a6.92,6.92,0,0,0,.22-2.08,6.89,6.89,0,0,0-.22-2.07c-.15-.43-.38-.64-.69-.64s-.54.21-.68.63a7.07,7.07,0,0,0-.22,2.07,7.1,7.1,0,0,0,.22,2.08c.15.42.37.64.68.64"/><path class="cls-8" d="M102.78,25.83h-.56V21.68c0-.37,0-.92,0-1.64a5.58,5.58,0,0,1-.39.51l-.47.55-.31-.56,1.23-1.36h.48Z"/><path class="cls-8" d="M7.65,38.09a1.21,1.21,0,0,1-1.11-.88,6.64,6.64,0,0,1-.38-2.54q0-3.41,1.49-3.41a1.22,1.22,0,0,1,1.13.88,6.62,6.62,0,0,1,.38,2.54q0,3.42-1.5,3.42m0-.7c.31,0,.55-.21.69-.64a6.92,6.92,0,0,0,.22-2.08,6.88,6.88,0,0,0-.22-2.07C8.2,32.18,8,32,7.65,32s-.54.21-.68.63a7.06,7.06,0,0,0-.22,2.07A7.1,7.1,0,0,0,7,36.75c.14.42.37.64.68.64"/><path class="cls-8" d="M12.07,38H11.5V33.85c0-.37,0-.91,0-1.64a5.75,5.75,0,0,1-.39.51l-.47.55-.31-.56,1.23-1.36h.48Z"/><path class="cls-8" d="M16,38h-.56V33.85c0-.37,0-.91,0-1.64a5.66,5.66,0,0,1-.39.51l-.47.55-.31-.56,1.23-1.36H16Z"/><path class="cls-8" d="M19.49,38.09a1.21,1.21,0,0,1-1.11-.88A6.64,6.64,0,0,1,18,34.67q0-3.41,1.49-3.41a1.22,1.22,0,0,1,1.13.88A6.62,6.62,0,0,1,21,34.67q0,3.42-1.5,3.42m0-.7c.31,0,.55-.21.69-.64a6.92,6.92,0,0,0,.22-2.08,6.88,6.88,0,0,0-.22-2.07c-.15-.43-.38-.64-.69-.64s-.54.21-.68.63a7.06,7.06,0,0,0-.22,2.07,7.1,7.1,0,0,0,.22,2.08c.14.42.37.64.68.64"/><path class="cls-8" d="M23.43,38.09a1.21,1.21,0,0,1-1.11-.88,6.65,6.65,0,0,1-.38-2.54q0-3.41,1.49-3.41a1.22,1.22,0,0,1,1.13.88,6.62,6.62,0,0,1,.38,2.54q0,3.42-1.5,3.42m0-.7c.31,0,.55-.21.69-.64a6.92,6.92,0,0,0,.22-2.08,6.88,6.88,0,0,0-.22-2.07c-.15-.43-.38-.64-.69-.64s-.54.21-.68.63a7.07,7.07,0,0,0-.22,2.07,7.1,7.1,0,0,0,.22,2.08c.14.42.37.64.68.64"/><path class="cls-8" d="M27.84,38h-.56V33.85c0-.37,0-.91,0-1.64a5.66,5.66,0,0,1-.39.51l-.47.55-.31-.56,1.23-1.36h.48Z"/><path class="cls-8" d="M31.79,38h-.56V33.85c0-.37,0-.91,0-1.64a5.66,5.66,0,0,1-.39.51l-.47.55-.31-.56,1.23-1.36h.48Z"/><path class="cls-8" d="M35.26,38.09a1.21,1.21,0,0,1-1.11-.88,6.65,6.65,0,0,1-.38-2.54q0-3.41,1.49-3.41a1.22,1.22,0,0,1,1.13.88,6.62,6.62,0,0,1,.38,2.54q0,3.42-1.5,3.42m0-.7c.31,0,.55-.21.69-.64a6.92,6.92,0,0,0,.22-2.08A6.88,6.88,0,0,0,36,32.6c-.15-.43-.38-.64-.69-.64s-.54.21-.68.63a7.07,7.07,0,0,0-.22,2.07,7.1,7.1,0,0,0,.22,2.08c.15.42.37.64.68.64"/><path class="cls-8" d="M39.68,38h-.56V33.85c0-.37,0-.91,0-1.64a5.66,5.66,0,0,1-.39.51l-.47.55L38,32.72l1.23-1.36h.48Z"/><path class="cls-8" d="M43.15,38.09A1.21,1.21,0,0,1,42,37.21a6.64,6.64,0,0,1-.38-2.54q0-3.41,1.49-3.41a1.22,1.22,0,0,1,1.13.88,6.62,6.62,0,0,1,.38,2.54q0,3.42-1.5,3.42m0-.7c.31,0,.55-.21.69-.64a6.92,6.92,0,0,0,.22-2.08,6.88,6.88,0,0,0-.22-2.07c-.15-.43-.38-.64-.69-.64s-.54.21-.68.63a7.07,7.07,0,0,0-.22,2.07,7.1,7.1,0,0,0,.22,2.08c.15.42.37.64.68.64"/><path class="cls-8" d="M47.56,38H47V33.85c0-.37,0-.91,0-1.64a5.64,5.64,0,0,1-.39.51l-.47.55-.31-.56,1.23-1.36h.48Z"/><path class="cls-8" d="M51.51,38h-.56V33.85c0-.37,0-.91,0-1.64a5.66,5.66,0,0,1-.39.51l-.47.55-.31-.56L51,31.36h.48Z"/><path class="cls-8" d="M55,38.09a1.21,1.21,0,0,1-1.11-.88,6.64,6.64,0,0,1-.38-2.54q0-3.41,1.49-3.41a1.22,1.22,0,0,1,1.13.88,6.62,6.62,0,0,1,.38,2.54q0,3.42-1.5,3.42m0-.7c.31,0,.55-.21.69-.64a6.92,6.92,0,0,0,.22-2.08,6.88,6.88,0,0,0-.22-2.07c-.15-.43-.38-.64-.69-.64s-.54.21-.68.63a7.07,7.07,0,0,0-.22,2.07,7.1,7.1,0,0,0,.22,2.08c.14.42.37.64.68.64"/><path class="cls-8" d="M58.93,38.09a1.21,1.21,0,0,1-1.11-.88,6.65,6.65,0,0,1-.38-2.54q0-3.41,1.49-3.41a1.22,1.22,0,0,1,1.13.88,6.62,6.62,0,0,1,.38,2.54q0,3.42-1.5,3.42m0-.7c.31,0,.55-.21.69-.64a6.92,6.92,0,0,0,.22-2.08,6.88,6.88,0,0,0-.22-2.07c-.15-.43-.38-.64-.69-.64s-.54.21-.68.63A7.07,7.07,0,0,0,58,34.67a7.1,7.1,0,0,0,.22,2.08c.15.42.37.64.68.64"/><path class="cls-8" d="M63.34,38h-.56V33.85c0-.37,0-.91,0-1.64a5.66,5.66,0,0,1-.39.51l-.47.55-.31-.56,1.23-1.36h.48Z"/><path class="cls-8" d="M66.82,38.09a1.21,1.21,0,0,1-1.11-.88,6.65,6.65,0,0,1-.38-2.54q0-3.41,1.49-3.41a1.22,1.22,0,0,1,1.13.88,6.62,6.62,0,0,1,.38,2.54q0,3.42-1.5,3.42m0-.7c.31,0,.55-.21.69-.64a6.92,6.92,0,0,0,.22-2.08,6.88,6.88,0,0,0-.22-2.07c-.15-.43-.38-.64-.69-.64s-.54.21-.68.63a7.07,7.07,0,0,0-.22,2.07,7.1,7.1,0,0,0,.22,2.08c.15.42.37.64.68.64"/><path class="cls-8" d="M70.76,38.09a1.21,1.21,0,0,1-1.11-.88,6.64,6.64,0,0,1-.38-2.54q0-3.41,1.49-3.41a1.22,1.22,0,0,1,1.13.88,6.62,6.62,0,0,1,.38,2.54q0,3.42-1.5,3.42m0-.7c.31,0,.55-.21.69-.64a6.92,6.92,0,0,0,.22-2.08,6.88,6.88,0,0,0-.22-2.07c-.15-.43-.38-.64-.69-.64s-.54.21-.68.63a7.07,7.07,0,0,0-.22,2.07,7.1,7.1,0,0,0,.22,2.08c.15.42.37.64.68.64"/><path class="cls-8" d="M74.71,38.09a1.21,1.21,0,0,1-1.11-.88,6.64,6.64,0,0,1-.38-2.54q0-3.41,1.49-3.41a1.22,1.22,0,0,1,1.13.88,6.62,6.62,0,0,1,.38,2.54q0,3.42-1.5,3.42m0-.7c.31,0,.55-.21.69-.64a6.92,6.92,0,0,0,.22-2.08,6.88,6.88,0,0,0-.22-2.07c-.15-.43-.38-.64-.69-.64s-.54.21-.68.63a7.06,7.06,0,0,0-.22,2.07A7.1,7.1,0,0,0,74,36.75c.15.42.37.64.68.64"/><path class="cls-8" d="M79.12,38h-.56V33.85c0-.37,0-.91,0-1.64a5.73,5.73,0,0,1-.39.51l-.47.55-.31-.56,1.23-1.36h.48Z"/><path class="cls-8" d="M82.59,38.09a1.21,1.21,0,0,1-1.11-.88,6.64,6.64,0,0,1-.38-2.54q0-3.41,1.49-3.41a1.22,1.22,0,0,1,1.13.88,6.62,6.62,0,0,1,.38,2.54q0,3.42-1.5,3.42m0-.7c.31,0,.55-.21.69-.64a6.92,6.92,0,0,0,.22-2.08,6.88,6.88,0,0,0-.22-2.07c-.15-.43-.38-.64-.69-.64s-.54.21-.68.63a7.06,7.06,0,0,0-.22,2.07,7.1,7.1,0,0,0,.22,2.08c.15.42.37.64.68.64"/><path class="cls-8" d="M86.54,38.09a1.21,1.21,0,0,1-1.11-.88A6.64,6.64,0,0,1,85,34.67q0-3.41,1.49-3.41a1.22,1.22,0,0,1,1.12.88A6.62,6.62,0,0,1,88,34.67q0,3.42-1.5,3.42m0-.7c.31,0,.55-.21.69-.64a6.92,6.92,0,0,0,.22-2.08,6.88,6.88,0,0,0-.22-2.07c-.15-.43-.38-.64-.69-.64s-.54.21-.68.63a7.06,7.06,0,0,0-.22,2.07,7.1,7.1,0,0,0,.22,2.08c.14.42.37.64.68.64"/><path class="cls-8" d="M91,38h-.56V33.85c0-.37,0-.91,0-1.64a5.71,5.71,0,0,1-.39.51l-.47.55-.31-.56,1.23-1.36H91Z"/><path class="cls-8" d="M94.43,38.09a1.21,1.21,0,0,1-1.11-.88,6.64,6.64,0,0,1-.38-2.54q0-3.41,1.49-3.41a1.22,1.22,0,0,1,1.13.88,6.62,6.62,0,0,1,.38,2.54q0,3.42-1.5,3.42m0-.7c.31,0,.55-.21.69-.64a6.92,6.92,0,0,0,.22-2.08,6.88,6.88,0,0,0-.22-2.07c-.15-.43-.38-.64-.69-.64s-.54.21-.68.63a7.06,7.06,0,0,0-.22,2.07,7.1,7.1,0,0,0,.22,2.08c.14.42.37.64.68.64"/><path class="cls-8" d="M98.84,38h-.56V33.85c0-.37,0-.91,0-1.64a5.73,5.73,0,0,1-.39.51l-.47.55-.31-.56,1.23-1.36h.48Z"/><path class="cls-8" d="M102.32,38.09a1.21,1.21,0,0,1-1.11-.88,6.65,6.65,0,0,1-.38-2.54q0-3.41,1.49-3.41a1.22,1.22,0,0,1,1.13.88,6.62,6.62,0,0,1,.38,2.54q0,3.42-1.5,3.42m0-.7c.31,0,.55-.21.69-.64a6.92,6.92,0,0,0,.22-2.08A6.88,6.88,0,0,0,103,32.6c-.15-.43-.38-.64-.69-.64s-.54.21-.68.63a7.07,7.07,0,0,0-.22,2.07,7.1,7.1,0,0,0,.22,2.08c.15.42.37.64.68.64"/><text class="cls-9" transform="translate(42.32 50.27)">DATA</text></g></g></svg>
