<svg xmlns="http://www.w3.org/2000/svg" viewBox="0 0 65 112.28">
    <defs>
        <style>
            .cls-1{fill:#96b3c9;}
            .cls-11,.cls-2,.cls-4,.cls-5,.cls-6,.cls-7,.cls-9{fill:none;}
            .cls-2{stroke:#96b3c9;}.cls-11,.cls-2,.cls-4,.cls-5,.cls-7{stroke-linecap:round;}.cls-11,.cls-2,.cls-4,.cls-5,.cls-6,.cls-7{stroke-linejoin:round;}.cls-3{fill:#abbcc6;}.cls-4,.cls-5,.cls-6,.cls-7,.cls-9{stroke:#474747;}.cls-5{stroke-width:1.5px;}.cls-7,.cls-9{stroke-width:1.19px;}.cls-8{fill:#fdfeff;}.cls-9{stroke-miterlimit:10;}.cls-10{fill:#90afc4;}.cls-11{stroke:#90afc4;}.cls-12{fill:#aaddf3;}
        </style>
    </defs>
    <title>Ресурс 19</title>
    <g id="Слой_2" data-name="Слой 2">
        <g id="Слой_1-2" data-name="Слой 1">
            <path class="cls-1"
                  d="M1.86,84.47v21.81c0,2.9,1.95,5.5,4.84,5.5H59.2a5.52,5.52,0,0,0,5.3-5.5V6.54c0-2.9-2.4-4.67-5.3-4.67"/>
            <path class="cls-2"
                  d="M1.86,84.47v21.81c0,2.9,1.95,5.5,4.84,5.5H59.2a5.52,5.52,0,0,0,5.3-5.5V6.54c0-2.9-2.4-4.67-5.3-4.67H27.86"/>
            <path class="cls-3"
                  d="M.5,13.5V5.18C.5,2.28,2.45.5,5.34.5H57.84c2.9,0,5.3,1.78,5.3,4.68v99.74a5.52,5.52,0,0,1-5.3,5.5H5.34c-2.9,0-4.84-2.6-4.84-5.5V13.5Z"/>
            <path class="cls-4"
                  d="M.5,13.5V5.18C.5,2.28,2.45.5,5.34.5H57.84c2.9,0,5.3,1.78,5.3,4.68v99.74a5.52,5.52,0,0,1-5.3,5.5H5.34c-2.9,0-4.84-2.6-4.84-5.5V13.5Z"/>
            <line class="cls-5" x1="37.14" y1="5.23" x2="26.5" y2="5.23"/>
            <line class="cls-6" x1="0.5" y1="92.69" x2="63.14" y2="92.69"/>
            <line class="cls-6" x1="0.5" y1="11.14" x2="63.14" y2="11.14"/>
            <circle class="cls-7" cx="31.59" cy="101.64" r="4.06"/>
            <rect class="cls-8" x="2.09" y="12.32" width="59.93" height="79.21"/>
            <line class="cls-7" x1="57.23" y1="16.2" x2="46.59" y2="16.2"/>
            <line class="cls-7" x1="57.23" y1="19.74" x2="46.59" y2="19.74"/>
            <line class="cls-7" x1="57.23" y1="23.29" x2="46.59" y2="23.29"/>
            <path class="cls-7"
                  d="M4.84,58.91c10.16,0,10.63,10.36,20.79,10.36S34.88,58.91,45,58.91c7,0,9.39,4.9,13.51,8"/>
            <line class="cls-7" x1="14.09" y1="86.76" x2="14.09" y2="72.54"/>
            <line class="cls-7" x1="22.37" y1="86.76" x2="22.37" y2="77.87"/>
            <line class="cls-7" x1="30.64" y1="86.76" x2="30.64" y2="76.1"/>
            <line class="cls-7" x1="38.91" y1="86.76" x2="38.91" y2="69.87"/>
            <line class="cls-7" x1="48.37" y1="86.76" x2="48.37" y2="64.54"/>
            <line class="cls-7" x1="58.13" y1="86.76" x2="58.13" y2="71.65"/>
            <polyline class="cls-7" points="5.82 67.95 5.82 87.07 58.41 87.07"/>
            <ellipse class="cls-9" cx="10" cy="19.22" rx="3.13" ry="2.77"/>
            <line class="cls-7" x1="10.49" y1="21" x2="12.18" y2="22.63"/>
            <path class="cls-10"
                  d="M51.6,50.43H57a1,1,0,0,0,1.07-1V31.49a1,1,0,0,0-1.07-1H8.32a1,1,0,0,0-1.08,1V49.44a1,1,0,0,0,1.08,1H46.23"/>
            <path class="cls-11"
                  d="M51.6,50.43H57a1,1,0,0,0,1.07-1V31.49a1,1,0,0,0-1.07-1H8.32a1,1,0,0,0-1.08,1V49.44a1,1,0,0,0,1.08,1H46.23"/>
            <line class="cls-10" x1="52.14" y1="36.48" x2="13.16" y2="36.48"/>
            <line class="cls-11" x1="52.14" y1="36.48" x2="13.16" y2="36.48"/>
            <line class="cls-10" x1="52.14" y1="40.46" x2="13.16" y2="40.46"/>
            <line class="cls-11" x1="52.14" y1="40.46" x2="13.16" y2="40.46"/>
            <line class="cls-10" x1="52.14" y1="44.45" x2="19.61" y2="44.45"/>
            <line class="cls-11" x1="52.14" y1="44.45" x2="19.61" y2="44.45"/>
            <polyline class="cls-10" points="46.23 50.44 51.6 56.41 51.6 50.44"/>
            <polyline class="cls-11" points="46.23 50.44 51.6 56.41 51.6 50.44"/>
            <path class="cls-12"
                  d="M52.37,49.72h5.37a1,1,0,0,0,1.07-1V30.78a1,1,0,0,0-1.07-1H9.09a1,1,0,0,0-1.07,1V48.73a1,1,0,0,0,1.07,1H47"/>
            <path class="cls-4"
                  d="M52.37,49.72h5.37a1,1,0,0,0,1.07-1V30.78a1,1,0,0,0-1.07-1H9.09a1,1,0,0,0-1.07,1V48.73a1,1,0,0,0,1.07,1H47"/>
            <line class="cls-12" x1="52.91" y1="35.77" x2="13.92" y2="35.77"/>
            <line class="cls-4" x1="52.91" y1="35.77" x2="13.92" y2="35.77"/>
            <line class="cls-12" x1="52.91" y1="39.75" x2="13.92" y2="39.75"/>
            <line class="cls-4" x1="52.91" y1="39.75" x2="13.92" y2="39.75"/>
            <line class="cls-12" x1="52.91" y1="43.74" x2="20.37" y2="43.74"/>
            <line class="cls-4" x1="52.91" y1="43.74" x2="20.37" y2="43.74"/>
            <polyline class="cls-12" points="47 49.72 52.37 55.7 52.37 49.72"/>
            <polyline class="cls-4" points="47 49.72 52.37 55.7 52.37 49.72"/>
        </g>
    </g>
</svg>