<svg xmlns="http://www.w3.org/2000/svg" viewBox="0 0 165.33 150.26"><defs><style>.cls-1{fill:#96b3c9;}.cls-10,.cls-12,.cls-2,.cls-5,.cls-7,.cls-9{fill:none;}.cls-2,.cls-3{stroke:#96b3c9;}.cls-12,.cls-2,.cls-3,.cls-7,.cls-9{stroke-linecap:round;stroke-linejoin:round;}.cls-3{fill:#98b3c9;}.cls-4{fill:#e9eff4;}.cls-10,.cls-5,.cls-7,.cls-9{stroke:#474747;}.cls-10,.cls-5{stroke-miterlimit:10;}.cls-5{stroke-width:0.98px;}.cls-6{fill:#fdfeff;}.cls-8{fill:#b7bfc4;}.cls-9{stroke-width:1.5px;}.cls-11{fill:#90afc4;}.cls-12{stroke:#90afc4;}.cls-13{fill:#aaddf3;}</style></defs><title>Ресурс 18</title><g id="Слой_2" data-name="Слой 2"><g id="Слой_1-2" data-name="Слой 1"><polygon class="cls-1" points="67.52 123.28 62.27 149 104.27 149 99.02 123.28 67.52 123.28"/><polygon class="cls-2" points="67.52 123.28 62.27 149 104.27 149 99.02 123.28 67.52 123.28"/><path class="cls-3" d="M157.57,123.16a7.28,7.28,0,0,0,7.25-7.25V40.55h0V9.11a7.27,7.27,0,0,0-7.25-7.25H9A7.27,7.27,0,0,0,1.73,9.11V40.55h0V115.9A7.28,7.28,0,0,0,9,123.16H157.57Z"/><path class="cls-4" d="M155.59,121.8H8.49a8,8,0,0,1-8-8V8.49a8,8,0,0,1,8-8h147.1a8,8,0,0,1,8,8V113.8a8,8,0,0,1-8,8"/><rect class="cls-5" x="0.49" y="0.49" width="163.1" height="121.3" rx="8" ry="8"/><rect class="cls-6" x="10.54" y="11.42" width="140.64" height="89.42"/><rect class="cls-7" x="10.54" y="11.42" width="140.64" height="89.42"/><path class="cls-7" d="M43.62,37.1c18.7,0,19.57,21,38.27,21s17-21,35.72-21c12.87,0,17.29,9.92,24.87,16.13"/><line class="cls-7" x1="61.9" y1="92.46" x2="61.9" y2="58.05"/><line class="cls-7" x1="77.26" y1="92.46" x2="77.26" y2="68.69"/><line class="cls-7" x1="93.81" y1="92.46" x2="93.81" y2="66.32"/><line class="cls-7" x1="109.17" y1="92.46" x2="109.17" y2="53.32"/><line class="cls-7" x1="124.54" y1="92.46" x2="124.54" y2="60.41"/><polyline class="cls-7" points="46.53 47.41 46.53 93.05 141.09 93.05"/><polygon class="cls-8" points="60.91 147.64 66.16 121.92 97.66 121.92 102.91 147.64 60.91 147.64"/><polygon class="cls-7" points="60.91 147.64 66.16 121.92 97.66 121.92 102.91 147.64 60.91 147.64"/><polygon class="cls-7" points="60.91 147.64 66.16 121.92 97.66 121.92 102.91 147.64 60.91 147.64"/><line class="cls-7" x1="47.77" y1="147.92" x2="116.32" y2="147.92"/><line class="cls-7" x1="47.77" y1="149.76" x2="116.32" y2="149.76"/><line class="cls-9" x1="79.68" y1="111.29" x2="84.41" y2="111.29"/><ellipse class="cls-10" cx="24.17" cy="18.43" rx="3.13" ry="2.77"/><line class="cls-7" x1="24.66" y1="20.21" x2="26.35" y2="21.84"/><line class="cls-7" x1="12.31" y1="26.78" x2="149.66" y2="26.78"/><line class="cls-7" x1="34.77" y1="19.69" x2="143.5" y2="19.69"/><path class="cls-11" d="M22.28,48.82H18.89a.66.66,0,0,1-.68-.63V36.88a.66.66,0,0,1,.68-.63H37.18a.66.66,0,0,1,.68.63V48.2a.66.66,0,0,1-.68.63H25.67"/><path class="cls-12" d="M22.28,48.82H18.89a.66.66,0,0,1-.68-.63V36.88a.66.66,0,0,1,.68-.63H37.18a.66.66,0,0,1,.68.63V48.2a.66.66,0,0,1-.68.63H25.67"/><line class="cls-11" x1="21.94" y1="40.03" x2="34.14" y2="40.03"/><line class="cls-12" x1="21.94" y1="40.03" x2="34.14" y2="40.03"/><line class="cls-11" x1="21.94" y1="42.54" x2="34.14" y2="42.54"/><line class="cls-12" x1="21.94" y1="42.54" x2="34.14" y2="42.54"/><line class="cls-11" x1="21.94" y1="45.05" x2="30.07" y2="45.05"/><line class="cls-12" x1="21.94" y1="45.05" x2="30.07" y2="45.05"/><polyline class="cls-11" points="25.67 48.82 22.28 52.6 22.28 48.82"/><polyline class="cls-12" points="25.67 48.82 22.28 52.6 22.28 48.82"/><path class="cls-13" d="M21.8,48.38H18.41a.66.66,0,0,1-.68-.63V36.43a.66.66,0,0,1,.68-.63H36.7a.66.66,0,0,1,.68.63V47.75a.66.66,0,0,1-.68.63H25.18"/><path class="cls-7" d="M21.8,48.38H18.41a.66.66,0,0,1-.68-.63V36.43a.66.66,0,0,1,.68-.63H36.7a.66.66,0,0,1,.68.63V47.75a.66.66,0,0,1-.68.63H25.18"/><line class="cls-13" x1="21.46" y1="39.58" x2="33.65" y2="39.58"/><line class="cls-7" x1="21.46" y1="39.58" x2="33.65" y2="39.58"/><line class="cls-13" x1="21.46" y1="42.09" x2="33.65" y2="42.09"/><line class="cls-7" x1="21.46" y1="42.09" x2="33.65" y2="42.09"/><line class="cls-13" x1="21.46" y1="44.6" x2="29.59" y2="44.6"/><line class="cls-7" x1="21.46" y1="44.6" x2="29.59" y2="44.6"/><polyline class="cls-13" points="25.18 48.38 21.8 52.15 21.8 48.38"/><polyline class="cls-7" points="25.18 48.38 21.8 52.15 21.8 48.38"/><path class="cls-11" d="M22.28,89.47H18.89a.66.66,0,0,1-.68-.63V77.53a.66.66,0,0,1,.68-.63H37.18a.66.66,0,0,1,.68.63V88.84a.66.66,0,0,1-.68.63H25.67"/><path class="cls-12" d="M22.28,89.47H18.89a.66.66,0,0,1-.68-.63V77.53a.66.66,0,0,1,.68-.63H37.18a.66.66,0,0,1,.68.63V88.84a.66.66,0,0,1-.68.63H25.67"/><line class="cls-11" x1="21.94" y1="80.67" x2="34.14" y2="80.67"/><line class="cls-12" x1="21.94" y1="80.67" x2="34.14" y2="80.67"/><line class="cls-11" x1="21.94" y1="83.19" x2="34.14" y2="83.19"/><line class="cls-12" x1="21.94" y1="83.19" x2="34.14" y2="83.19"/><line class="cls-11" x1="21.94" y1="85.7" x2="30.07" y2="85.7"/><line class="cls-12" x1="21.94" y1="85.7" x2="30.07" y2="85.7"/><polyline class="cls-11" points="25.67 89.47 22.28 93.24 22.28 89.47"/><polyline class="cls-12" points="25.67 89.47 22.28 93.24 22.28 89.47"/><path class="cls-13" d="M21.8,89H18.41a.66.66,0,0,1-.68-.63V77.08a.66.66,0,0,1,.68-.63H36.7a.66.66,0,0,1,.68.63V88.4a.66.66,0,0,1-.68.63H25.18"/><path class="cls-7" d="M21.8,89H18.41a.66.66,0,0,1-.68-.63V77.08a.66.66,0,0,1,.68-.63H36.7a.66.66,0,0,1,.68.63V88.4a.66.66,0,0,1-.68.63H25.18"/><line class="cls-13" x1="21.46" y1="80.23" x2="33.65" y2="80.23"/><line class="cls-7" x1="21.46" y1="80.23" x2="33.65" y2="80.23"/><line class="cls-13" x1="21.46" y1="82.74" x2="33.65" y2="82.74"/><line class="cls-7" x1="21.46" y1="82.74" x2="33.65" y2="82.74"/><line class="cls-13" x1="21.46" y1="85.25" x2="29.59" y2="85.25"/><line class="cls-7" x1="21.46" y1="85.25" x2="29.59" y2="85.25"/><polyline class="cls-13" points="25.18 89.03 21.8 92.8 21.8 89.03"/><polyline class="cls-7" points="25.18 89.03 21.8 92.8 21.8 89.03"/><path class="cls-11" d="M33.31,69.37H36.7a.66.66,0,0,0,.68-.63V57.42a.66.66,0,0,0-.68-.63H18.41a.66.66,0,0,0-.68.63V68.74a.66.66,0,0,0,.68.63H29.92"/><path class="cls-12" d="M33.31,69.37H36.7a.66.66,0,0,0,.68-.63V57.42a.66.66,0,0,0-.68-.63H18.41a.66.66,0,0,0-.68.63V68.74a.66.66,0,0,0,.68.63H29.92"/><line class="cls-11" x1="33.65" y1="60.57" x2="21.46" y2="60.57"/><line class="cls-12" x1="33.65" y1="60.57" x2="21.46" y2="60.57"/><line class="cls-11" x1="33.65" y1="63.08" x2="21.46" y2="63.08"/><line class="cls-12" x1="33.65" y1="63.08" x2="21.46" y2="63.08"/><line class="cls-11" x1="33.65" y1="65.59" x2="25.52" y2="65.59"/><line class="cls-12" x1="33.65" y1="65.59" x2="25.52" y2="65.59"/><polyline class="cls-11" points="29.93 69.37 33.31 73.14 33.31 69.37"/><polyline class="cls-12" points="29.93 69.37 33.31 73.14 33.31 69.37"/><path class="cls-13" d="M33.8,68.92h3.39a.66.66,0,0,0,.68-.63V57a.66.66,0,0,0-.68-.63H18.89a.66.66,0,0,0-.68.63V68.29a.66.66,0,0,0,.68.63H30.41"/><path class="cls-7" d="M33.8,68.92h3.39a.66.66,0,0,0,.68-.63V57a.66.66,0,0,0-.68-.63H18.89a.66.66,0,0,0-.68.63V68.29a.66.66,0,0,0,.68.63H30.41"/><line class="cls-13" x1="34.14" y1="60.12" x2="21.94" y2="60.12"/><line class="cls-7" x1="34.14" y1="60.12" x2="21.94" y2="60.12"/><line class="cls-13" x1="34.14" y1="62.63" x2="21.94" y2="62.63"/><line class="cls-7" x1="34.14" y1="62.63" x2="21.94" y2="62.63"/><line class="cls-13" x1="34.14" y1="65.15" x2="26.01" y2="65.15"/><line class="cls-7" x1="34.14" y1="65.15" x2="26.01" y2="65.15"/><polyline class="cls-13" points="30.41 68.92 33.8 72.69 33.8 68.92"/><polyline class="cls-7" points="30.41 68.92 33.8 72.69 33.8 68.92"/><line class="cls-7" x1="141.09" y1="93.05" x2="141.09" y2="60.87"/></g></g></svg>