<svg xmlns="http://www.w3.org/2000/svg" viewBox="0 0 78.53 29.74"><defs><style>.cls-1,.cls-9{font-size:7.53px;}.cls-1,.cls-2{fill:#96b3c9;}.cls-1,.cls-10,.cls-2,.cls-9{font-family:BlairMdITCTTMedium, BlairMdITC TT;}.cls-10,.cls-2{font-size:7.17px;}.cls-3{letter-spacing:-0.01em;}.cls-4,.cls-6,.cls-8{fill:none;stroke-miterlimit:10;}.cls-4{stroke:#96b3c9;}.cls-5{fill:#e9eff4;}.cls-6,.cls-8{stroke:#474747;}.cls-6{stroke-width:0.98px;}.cls-7{fill:#fddba3;}.cls-10,.cls-9{fill:#474747;}</style></defs><title>Ресурс 17</title><g id="Слой_2" data-name="Слой 2"><g id="Слой_1-2" data-name="Слой 1"><text class="cls-1" transform="translate(37.84 18.2)">Q</text><text class="cls-2" transform="translate(46.1 18.2)"> <tspan class="cls-3" x="2.15" y="0">A</tspan><tspan x="8.89" y="0">PP</tspan></text><path class="cls-4" d="M50.31,16.26l1.34-2.51L53,16.26ZM52.18,13H51.1L48.36,18.2h.94L49.9,17h3.5L54,18.2h.94Z"/><path class="cls-4" d="M56.71,15.45V13.78h3q1.05,0,1.05.86t-1,.8ZM55.85,13V18.2h.86v-2H59.8a2.13,2.13,0,0,0,1.41-.41,1.46,1.46,0,0,0,.48-1.18,1.54,1.54,0,0,0-.47-1.18A1.76,1.76,0,0,0,60,13Z"/><path class="cls-4" d="M63.54,15.45V13.78h3q1.05,0,1.05.86t-1,.8ZM62.68,13V18.2h.86v-2h3.09A2.13,2.13,0,0,0,68,15.81a1.46,1.46,0,0,0,.48-1.18,1.54,1.54,0,0,0-.47-1.18A1.76,1.76,0,0,0,66.79,13Z"/><path class="cls-5" d="M72.11,29.25H6.42A5.93,5.93,0,0,1,.49,23.32V6.42A5.93,5.93,0,0,1,6.42.49H72.11A5.93,5.93,0,0,1,78,6.42V23.32a5.93,5.93,0,0,1-5.93,5.93"/><rect class="cls-6" x="0.49" y="0.49" width="77.55" height="28.75" rx="5.93" ry="5.93"/><path class="cls-7" d="M22.56,21a1.54,1.54,0,1,1,1.54,1.54A1.54,1.54,0,0,1,22.56,21"/><path class="cls-7" d="M9.18,21a1.54,1.54,0,1,1,1.54,1.54A1.54,1.54,0,0,1,9.18,21"/><path class="cls-7" d="M15.87,14.87a1.54,1.54,0,1,1,1.54,1.54,1.54,1.54,0,0,1-1.54-1.54"/><path class="cls-7" d="M9.18,14.87a1.54,1.54,0,1,1,1.54,1.54,1.54,1.54,0,0,1-1.54-1.54"/><path class="cls-7" d="M22.56,8.76A1.54,1.54,0,1,1,24.1,10.3a1.54,1.54,0,0,1-1.54-1.54"/><path class="cls-7" d="M15.87,8.76a1.54,1.54,0,1,1,1.54,1.54,1.54,1.54,0,0,1-1.54-1.54"/><path class="cls-7" d="M9.18,8.76a1.54,1.54,0,1,1,1.54,1.54A1.54,1.54,0,0,1,9.18,8.76"/><circle class="cls-8" cx="24.1" cy="20.98" r="1.54"/><circle class="cls-8" cx="10.72" cy="20.98" r="1.54"/><circle class="cls-8" cx="17.41" cy="14.87" r="1.54"/><circle class="cls-8" cx="10.72" cy="14.87" r="1.54"/><circle class="cls-8" cx="24.1" cy="8.76" r="1.54"/><circle class="cls-8" cx="17.41" cy="8.76" r="1.54"/><circle class="cls-8" cx="10.72" cy="8.76" r="1.54"/><text class="cls-9" transform="translate(36.87 17.23)">Q APP</text></g></g></svg>
