<svg xmlns="http://www.w3.org/2000/svg" viewBox="0 0 79.5 30.71"><defs><style>.cls-1,.cls-4,.cls-5{fill:#96b3c9;}.cls-10,.cls-2,.cls-3,.cls-8{fill:none;stroke-miterlimit:10;}.cls-2,.cls-3{stroke:#96b3c9;}.cls-2,.cls-8{stroke-width:0.98px;}.cls-11,.cls-4{font-size:7.53px;}.cls-11,.cls-12,.cls-4,.cls-5{font-family:BlairMdITCTTMedium, BlairMdITC TT;}.cls-12,.cls-5{font-size:7.17px;}.cls-6{letter-spacing:-0.01em;}.cls-7{fill:#e9eff4;}.cls-10,.cls-8{stroke:#474747;}.cls-9{fill:#fddba3;}.cls-11,.cls-12{fill:#474747;}</style></defs><title>Ресурс 15</title><g id="Слой_2" data-name="Слой 2"><g id="Слой_1-2" data-name="Слой 1"><path class="cls-1" d="M74,30.22H6.46a5,5,0,0,1-5-5V6.46a5,5,0,0,1,5-5H74a5,5,0,0,1,5,5V25.22a5,5,0,0,1-5,5"/><rect class="cls-2" x="1.46" y="1.46" width="77.55" height="28.75" rx="5" ry="5"/><path class="cls-1" d="M23.53,15.84a1.54,1.54,0,1,1,1.54,1.54,1.54,1.54,0,0,1-1.54-1.54"/><circle class="cls-3" cx="25.07" cy="15.84" r="1.54"/><path class="cls-1" d="M16.84,15.84a1.54,1.54,0,1,1,1.54,1.54,1.54,1.54,0,0,1-1.54-1.54"/><circle class="cls-3" cx="18.39" cy="15.84" r="1.54"/><path class="cls-1" d="M10.16,15.84a1.54,1.54,0,1,1,1.54,1.54,1.54,1.54,0,0,1-1.54-1.54"/><circle class="cls-3" cx="11.7" cy="15.84" r="1.54"/><path class="cls-1" d="M23.53,9.73a1.54,1.54,0,1,1,1.54,1.54,1.54,1.54,0,0,1-1.54-1.54"/><circle class="cls-3" cx="25.07" cy="9.73" r="1.54"/><path class="cls-1" d="M13.24,22a1.54,1.54,0,1,1-1.54-1.54A1.54,1.54,0,0,1,13.24,22"/><circle class="cls-3" cx="11.7" cy="21.95" r="1.54"/><path class="cls-1" d="M19.93,22a1.54,1.54,0,1,1-1.54-1.54A1.54,1.54,0,0,1,19.93,22"/><circle class="cls-3" cx="18.39" cy="21.95" r="1.54"/><path class="cls-1" d="M26.61,22a1.54,1.54,0,1,1-1.54-1.54A1.54,1.54,0,0,1,26.61,22"/><circle class="cls-3" cx="25.07" cy="21.95" r="1.54"/><text class="cls-4" transform="translate(37.84 18.2)">Q</text><text class="cls-5" transform="translate(46.1 18.2)"> <tspan class="cls-6" x="2.15" y="0">A</tspan><tspan x="8.89" y="0">PP</tspan></text><path class="cls-7" d="M73,29.25H5.49a5,5,0,0,1-5-5V5.49a5,5,0,0,1,5-5H73a5,5,0,0,1,5,5V24.25a5,5,0,0,1-5,5"/><rect class="cls-8" x="0.49" y="0.49" width="77.55" height="28.75" rx="5" ry="5"/><path class="cls-9" d="M22.56,14.87a1.54,1.54,0,1,1,1.54,1.54,1.54,1.54,0,0,1-1.54-1.54"/><circle class="cls-10" cx="24.1" cy="14.87" r="1.54"/><path class="cls-9" d="M15.87,14.87a1.54,1.54,0,1,1,1.54,1.54,1.54,1.54,0,0,1-1.54-1.54"/><circle class="cls-10" cx="17.41" cy="14.87" r="1.54"/><path class="cls-9" d="M9.18,14.87a1.54,1.54,0,1,1,1.54,1.54,1.54,1.54,0,0,1-1.54-1.54"/><circle class="cls-10" cx="10.72" cy="14.87" r="1.54"/><path class="cls-9" d="M22.56,8.76A1.54,1.54,0,1,1,24.1,10.3a1.54,1.54,0,0,1-1.54-1.54"/><circle class="cls-10" cx="24.1" cy="8.76" r="1.54"/><path class="cls-9" d="M12.26,21a1.54,1.54,0,1,1-1.54-1.54A1.54,1.54,0,0,1,12.26,21"/><circle class="cls-10" cx="10.72" cy="20.98" r="1.54"/><path class="cls-9" d="M19,21a1.54,1.54,0,1,1-1.54-1.54A1.54,1.54,0,0,1,19,21"/><circle class="cls-10" cx="17.41" cy="20.98" r="1.54"/><path class="cls-9" d="M25.64,21a1.54,1.54,0,1,1-1.54-1.54A1.54,1.54,0,0,1,25.64,21"/><circle class="cls-10" cx="24.1" cy="20.98" r="1.54"/><text class="cls-11" transform="translate(36.87 17.23)">Q APP</text></g></g></svg>
