<svg xmlns="http://www.w3.org/2000/svg" xmlns:xlink="http://www.w3.org/1999/xlink" viewBox="0 0 123.79 130.86"><defs><style>.cls-1,.cls-11,.cls-13,.cls-5,.cls-7,.cls-9{fill:none;}.cls-2{opacity:0.7;}.cls-3{clip-path:url(#clip-path);}.cls-4{fill:#96b3c9;}.cls-5{stroke:#96b3c9;}.cls-11,.cls-5,.cls-7{stroke-miterlimit:10;}.cls-5,.cls-7{stroke-width:0.98px;}.cls-6{fill:#e9eff4;}.cls-11,.cls-7,.cls-9{stroke:#474747;}.cls-8{fill:#aaddf3;}.cls-13,.cls-9{stroke-linecap:round;stroke-linejoin:round;}.cls-9{stroke-width:1.5px;}.cls-10,.cls-14,.cls-15{fill:#474747;}.cls-12{fill:#b5c0c6;}.cls-13{stroke:#1b75bb;stroke-width:2.37px;}.cls-14{font-size:11.14px;}.cls-14,.cls-15{font-family:BlairMdITCTTMedium, BlairMdITC TT;}.cls-15{font-size:10.6px;}.cls-16{letter-spacing:-0.05em;}.cls-17{letter-spacing:0em;}.cls-18{letter-spacing:-0.02em;}</style><clipPath id="clip-path"><rect class="cls-1" x="2.77" y="2.77" width="121.03" height="128.09"/></clipPath></defs><title>Ресурс 5</title><g id="Слой_2" data-name="Слой 2"><g id="Слой_1-2" data-name="Слой 1"><g class="cls-2"><g class="cls-3"><path class="cls-4" d="M117.3,130.37H9.26a6,6,0,0,1-6-6V9.26a6,6,0,0,1,6-6h108a6,6,0,0,1,6,6V124.37a6,6,0,0,1-6,6"/><rect class="cls-5" x="3.26" y="3.26" width="120.04" height="127.11" rx="6" ry="6"/></g></g><path class="cls-6" d="M114.53,127.6H6.49a6,6,0,0,1-6-6V6.49a6,6,0,0,1,6-6h108a6,6,0,0,1,6,6V121.6a6,6,0,0,1-6,6"/><rect class="cls-7" x="0.49" y="0.49" width="120.04" height="127.11" rx="6" ry="6"/><path class="cls-8" d="M93.41,95.8H28.09a3,3,0,0,1-3-3V27.48a3,3,0,0,1,3-3H93.41a3,3,0,0,1,3,3V92.8a3,3,0,0,1-3,3"/><path class="cls-9" d="M96.42,80V29.72a5.3,5.3,0,0,0-5.29-5.29H88.49"/><polygon class="cls-10" points="91.87 79.35 100.98 79.35 96.42 83.91 91.87 79.35"/><path class="cls-9" d="M40.89,95.8H91.14a5.3,5.3,0,0,0,5.29-5.29V87.87"/><polygon class="cls-10" points="41.5 91.25 41.5 100.36 36.95 95.8 41.5 91.25"/><path class="cls-9" d="M25.05,40.27V90.52a5.3,5.3,0,0,0,5.29,5.29H33"/><polygon class="cls-10" points="29.61 40.88 20.5 40.88 25.05 36.33 29.61 40.88"/><path class="cls-9" d="M80.58,24.43H30.34a5.3,5.3,0,0,0-5.29,5.29v2.64"/><polygon class="cls-10" points="79.97 28.99 79.97 19.88 84.53 24.43 79.97 28.99"/><line class="cls-9" x1="102.54" y1="71.91" x2="102.54" y2="39.49"/><line class="cls-9" x1="18.48" y1="47.89" x2="18.48" y2="81.52"/><line class="cls-9" x1="49.1" y1="102.53" x2="81.53" y2="102.53"/><line class="cls-9" x1="73.12" y1="18.48" x2="39.5" y2="18.48"/><line class="cls-9" x1="98.34" y1="102.53" x2="94.73" y2="102.53"/><line class="cls-9" x1="92.33" y1="102.53" x2="89.93" y2="102.53"/><line class="cls-9" x1="87.53" y1="102.53" x2="83.93" y2="102.53"/><line class="cls-9" x1="37.1" y1="18.48" x2="34.69" y2="18.48"/><line class="cls-9" x1="31.09" y1="18.48" x2="28.69" y2="18.48"/><line class="cls-9" x1="26.29" y1="18.48" x2="23.89" y2="18.48"/><line class="cls-9" x1="18.48" y1="97.13" x2="18.48" y2="94.73"/><line class="cls-9" x1="18.48" y1="92.32" x2="18.48" y2="88.72"/><line class="cls-9" x1="18.48" y1="86.32" x2="18.48" y2="83.92"/><line class="cls-9" x1="102.54" y1="35.89" x2="102.54" y2="33.49"/><line class="cls-9" x1="102.54" y1="31.08" x2="102.54" y2="28.68"/><line class="cls-9" x1="102.54" y1="26.28" x2="102.54" y2="22.68"/><path class="cls-4" d="M35.12,66.55a26.4,26.4,0,0,1-.77-5.4l6.66-3c.05-.56.15-1.1.25-1.64L35.7,51.68A26.24,26.24,0,0,1,38,46.73l7.26,1c.34-.43.71-.84,1.08-1.24l-2.08-7.06a26.46,26.46,0,0,1,4.58-2.94l5.55,4.81c.52-.17,1-.33,1.58-.46L58,33.82a26.67,26.67,0,0,1,5.43,0l2.07,7.08c.54.13,1.06.28,1.58.46l5.55-4.81a26.43,26.43,0,0,1,4.58,2.94l-2.08,7.06c.37.4.74.81,1.08,1.24l7.26-1a26.18,26.18,0,0,1,2.27,4.95l-5.55,4.81c.1.54.19,1.08.25,1.64l6.66,3a26.47,26.47,0,0,1-.77,5.4l-7.26,1c-.21.51-.44,1-.69,1.5l4,6.18a26.47,26.47,0,0,1-3.57,4.11l-6.67-3.05c-.45.32-.91.61-1.39.89v7.37a26.38,26.38,0,0,1-5.22,1.52l-4-6.2c-.27,0-.54,0-.82,0s-.54,0-.82,0l-4,6.2a26.39,26.39,0,0,1-5.22-1.52V77.21c-.48-.28-.94-.57-1.39-.89l-6.67,3.05a26.42,26.42,0,0,1-3.57-4.11l4-6.18c-.25-.49-.48-1-.69-1.5Z"/><path class="cls-11" d="M35.12,66.55a26.4,26.4,0,0,1-.77-5.4l6.66-3c.05-.56.15-1.1.25-1.64L35.7,51.68A26.24,26.24,0,0,1,38,46.73l7.26,1c.34-.43.71-.84,1.08-1.24l-2.08-7.06a26.46,26.46,0,0,1,4.58-2.94l5.55,4.81c.52-.17,1-.33,1.58-.46L58,33.82a26.67,26.67,0,0,1,5.43,0l2.07,7.08c.54.13,1.06.28,1.58.46l5.55-4.81a26.43,26.43,0,0,1,4.58,2.94l-2.08,7.06c.37.4.74.81,1.08,1.24l7.26-1a26.18,26.18,0,0,1,2.27,4.95l-5.55,4.81c.1.54.19,1.08.25,1.64l6.66,3a26.47,26.47,0,0,1-.77,5.4l-7.26,1c-.21.51-.44,1-.69,1.5l4,6.18a26.47,26.47,0,0,1-3.57,4.11l-6.67-3.05c-.45.32-.91.61-1.39.89v7.37a26.38,26.38,0,0,1-5.22,1.52l-4-6.2c-.27,0-.54,0-.82,0s-.54,0-.82,0l-4,6.2a26.39,26.39,0,0,1-5.22-1.52V77.21c-.48-.28-.94-.57-1.39-.89l-6.67,3.05a26.42,26.42,0,0,1-3.57-4.11l4-6.18c-.25-.49-.48-1-.69-1.5Z"/><path class="cls-12" d="M47.52,60.12A13.22,13.22,0,1,0,60.74,46.9,13.21,13.21,0,0,0,47.52,60.12"/><circle class="cls-11" cx="60.74" cy="60.12" r="13.22"/><circle class="cls-13" cx="60.74" cy="60.12" r="1.32"/><circle class="cls-13" cx="60.74" cy="60.12" r="2.64"/><path class="cls-8" d="M56.77,60.12a4,4,0,1,0,4-4,4,4,0,0,0-4,4"/><circle class="cls-11" cx="60.74" cy="60.12" r="3.96"/><text class="cls-14" transform="translate(11.01 118.12)">Q</text><text class="cls-15" transform="translate(23.22 118.12)"> COMPOSER</text></g></g></svg>
