<svg xmlns="http://www.w3.org/2000/svg" xmlns:xlink="http://www.w3.org/1999/xlink" viewBox="0 0 114.97 157"><defs><style>.cls-1,.cls-5,.cls-7,.cls-8{fill:none;}.cls-2{opacity:0.7;}.cls-3{clip-path:url(#clip-path);}.cls-4{fill:#96b3c9;}.cls-5{stroke:#96b3c9;}.cls-5,.cls-7,.cls-8{stroke-miterlimit:10;}.cls-5,.cls-7{stroke-width:0.98px;}.cls-6{fill:#d8dfe5;}.cls-7,.cls-8{stroke:#474747;}.cls-9{font-size:11.25px;fill:#474747;font-family:BlairMdITCTTMedium, BlairMdITC TT;}.cls-10{letter-spacing:-0.12em;}.cls-11{letter-spacing:-0.01em;}</style><clipPath id="clip-path"><rect class="cls-1" x="2.57" y="2.15" width="112.4" height="154.85"/></clipPath></defs><title>Ресурс 3</title><g id="Слой_2" data-name="Слой 2"><g id="Слой_1-2" data-name="Слой 1"><g class="cls-2"><g class="cls-3"><path class="cls-4" d="M108.48,156.5H9.06a6,6,0,0,1-6-6V8.64a6,6,0,0,1,6-6h99.42a6,6,0,0,1,6,6V150.5a6,6,0,0,1-6,6"/><rect class="cls-5" x="3.06" y="2.64" width="111.42" height="153.86" rx="6" ry="6"/></g></g><path class="cls-6" d="M105.91,154.36H6.49a6,6,0,0,1-6-6V6.49a6,6,0,0,1,6-6h99.42a6,6,0,0,1,6,6V148.36a6,6,0,0,1-6,6"/><rect class="cls-7" x="0.49" y="0.49" width="111.42" height="153.86" rx="6" ry="6"/><rect class="cls-4" x="52.22" y="118.83" width="5.93" height="5.93"/><rect class="cls-8" x="52.22" y="118.83" width="5.93" height="5.93"/><rect class="cls-4" x="52.22" y="108.39" width="5.93" height="5.93"/><rect class="cls-8" x="52.22" y="108.39" width="5.93" height="5.93"/><rect class="cls-4" x="52.22" y="87.52" width="5.93" height="5.93"/><rect class="cls-8" x="52.22" y="87.52" width="5.93" height="5.93"/><rect class="cls-4" x="52.22" y="97.96" width="5.93" height="5.93"/><rect class="cls-8" x="52.22" y="97.96" width="5.93" height="5.93"/><rect class="cls-4" x="52.22" y="77.09" width="5.93" height="5.93"/><rect class="cls-8" x="52.22" y="77.09" width="5.93" height="5.93"/><rect class="cls-4" x="74.62" y="118.83" width="5.93" height="5.93"/><rect class="cls-8" x="74.62" y="118.83" width="5.93" height="5.93"/><rect class="cls-4" x="74.62" y="108.39" width="5.93" height="5.93"/><rect class="cls-8" x="74.62" y="108.39" width="5.93" height="5.93"/><rect class="cls-4" x="74.62" y="87.52" width="5.93" height="5.93"/><rect class="cls-8" x="74.62" y="87.52" width="5.93" height="5.93"/><rect class="cls-4" x="74.62" y="97.96" width="5.93" height="5.93"/><rect class="cls-8" x="74.62" y="97.96" width="5.93" height="5.93"/><rect class="cls-4" x="74.62" y="77.09" width="5.93" height="5.93"/><rect class="cls-8" x="74.62" y="77.09" width="5.93" height="5.93"/><rect class="cls-4" x="74.62" y="66.65" width="5.93" height="5.93"/><rect class="cls-8" x="74.62" y="66.65" width="5.93" height="5.93"/><rect class="cls-4" x="63.42" y="118.83" width="5.93" height="5.93"/><rect class="cls-8" x="63.42" y="118.83" width="5.93" height="5.93"/><rect class="cls-4" x="63.42" y="108.39" width="5.93" height="5.93"/><rect class="cls-8" x="63.42" y="108.39" width="5.93" height="5.93"/><rect class="cls-4" x="63.42" y="87.52" width="5.93" height="5.93"/><rect class="cls-8" x="63.42" y="87.52" width="5.93" height="5.93"/><rect class="cls-4" x="63.42" y="97.96" width="5.93" height="5.93"/><rect class="cls-8" x="63.42" y="97.96" width="5.93" height="5.93"/><rect class="cls-4" x="63.42" y="77.09" width="5.93" height="5.93"/><rect class="cls-8" x="63.42" y="77.09" width="5.93" height="5.93"/><rect class="cls-4" x="63.42" y="66.65" width="5.93" height="5.93"/><rect class="cls-8" x="63.42" y="66.65" width="5.93" height="5.93"/><rect class="cls-4" x="63.42" y="56.21" width="5.93" height="5.93"/><rect class="cls-8" x="63.42" y="56.21" width="5.93" height="5.93"/><rect class="cls-4" x="41.02" y="118.83" width="5.93" height="5.93"/><rect class="cls-8" x="41.02" y="118.83" width="5.93" height="5.93"/><rect class="cls-4" x="41.02" y="108.39" width="5.93" height="5.93"/><rect class="cls-8" x="41.02" y="108.39" width="5.93" height="5.93"/><rect class="cls-4" x="41.02" y="87.52" width="5.93" height="5.93"/><rect class="cls-8" x="41.02" y="87.52" width="5.93" height="5.93"/><rect class="cls-4" x="41.02" y="97.96" width="5.93" height="5.93"/><rect class="cls-8" x="41.02" y="97.96" width="5.93" height="5.93"/><rect class="cls-4" x="41.02" y="77.09" width="5.93" height="5.93"/><rect class="cls-8" x="41.02" y="77.09" width="5.93" height="5.93"/><rect class="cls-4" x="41.02" y="66.65" width="5.93" height="5.93"/><rect class="cls-8" x="41.02" y="66.65" width="5.93" height="5.93"/><rect class="cls-4" x="41.02" y="56.21" width="5.93" height="5.93"/><rect class="cls-8" x="41.02" y="56.21" width="5.93" height="5.93"/><rect class="cls-4" x="85.82" y="118.83" width="5.93" height="5.93"/><rect class="cls-8" x="85.82" y="118.83" width="5.93" height="5.93"/><rect class="cls-4" x="85.82" y="108.39" width="5.93" height="5.93"/><rect class="cls-8" x="85.82" y="108.39" width="5.93" height="5.93"/><rect class="cls-4" x="85.82" y="87.52" width="5.93" height="5.93"/><rect class="cls-8" x="85.82" y="87.52" width="5.93" height="5.93"/><rect class="cls-4" x="85.82" y="97.96" width="5.93" height="5.93"/><rect class="cls-8" x="85.82" y="97.96" width="5.93" height="5.93"/><rect class="cls-4" x="85.82" y="77.09" width="5.93" height="5.93"/><rect class="cls-8" x="85.82" y="77.09" width="5.93" height="5.93"/><rect class="cls-4" x="85.82" y="66.65" width="5.93" height="5.93"/><rect class="cls-8" x="85.82" y="66.65" width="5.93" height="5.93"/><rect class="cls-4" x="85.82" y="56.21" width="5.93" height="5.93"/><rect class="cls-8" x="85.82" y="56.21" width="5.93" height="5.93"/><rect class="cls-4" x="85.82" y="35.34" width="5.93" height="5.93"/><rect class="cls-8" x="85.82" y="35.34" width="5.93" height="5.93"/><rect class="cls-4" x="85.82" y="45.78" width="5.93" height="5.93"/><rect class="cls-8" x="85.82" y="45.78" width="5.93" height="5.93"/><rect class="cls-4" x="97.03" y="118.83" width="5.93" height="5.93"/><rect class="cls-8" x="97.03" y="118.83" width="5.93" height="5.93"/><rect class="cls-4" x="97.03" y="108.39" width="5.93" height="5.93"/><rect class="cls-8" x="97.03" y="108.39" width="5.93" height="5.93"/><rect class="cls-4" x="97.03" y="87.52" width="5.93" height="5.93"/><rect class="cls-8" x="97.03" y="87.52" width="5.93" height="5.93"/><rect class="cls-4" x="97.03" y="97.96" width="5.93" height="5.93"/><rect class="cls-8" x="97.03" y="97.96" width="5.93" height="5.93"/><rect class="cls-4" x="97.03" y="77.09" width="5.93" height="5.93"/><rect class="cls-8" x="97.03" y="77.09" width="5.93" height="5.93"/><rect class="cls-4" x="97.03" y="66.65" width="5.93" height="5.93"/><rect class="cls-8" x="97.03" y="66.65" width="5.93" height="5.93"/><rect class="cls-4" x="97.03" y="56.21" width="5.93" height="5.93"/><rect class="cls-8" x="97.03" y="56.21" width="5.93" height="5.93"/><rect class="cls-4" x="97.03" y="35.34" width="5.93" height="5.93"/><rect class="cls-8" x="97.03" y="35.34" width="5.93" height="5.93"/><rect class="cls-4" x="97.03" y="24.91" width="5.93" height="5.93"/><rect class="cls-8" x="97.03" y="24.91" width="5.93" height="5.93"/><rect class="cls-4" x="97.03" y="45.78" width="5.93" height="5.93"/><rect class="cls-8" x="97.03" y="45.78" width="5.93" height="5.93"/><rect class="cls-4" x="97.03" y="14.47" width="5.93" height="5.93"/><rect class="cls-8" x="97.03" y="14.47" width="5.93" height="5.93"/><rect class="cls-4" x="29.82" y="118.83" width="5.93" height="5.93"/><rect class="cls-8" x="29.82" y="118.83" width="5.93" height="5.93"/><rect class="cls-4" x="29.82" y="108.39" width="5.93" height="5.93"/><rect class="cls-8" x="29.82" y="108.39" width="5.93" height="5.93"/><rect class="cls-4" x="29.82" y="87.52" width="5.93" height="5.93"/><rect class="cls-8" x="29.82" y="87.52" width="5.93" height="5.93"/><rect class="cls-4" x="29.82" y="97.96" width="5.93" height="5.93"/><rect class="cls-8" x="29.82" y="97.96" width="5.93" height="5.93"/><rect class="cls-4" x="29.82" y="77.09" width="5.93" height="5.93"/><rect class="cls-8" x="29.82" y="77.09" width="5.93" height="5.93"/><rect class="cls-4" x="29.82" y="66.65" width="5.93" height="5.93"/><rect class="cls-8" x="29.82" y="66.65" width="5.93" height="5.93"/><rect class="cls-4" x="29.82" y="56.21" width="5.93" height="5.93"/><rect class="cls-8" x="29.82" y="56.21" width="5.93" height="5.93"/><rect class="cls-4" x="29.82" y="35.34" width="5.93" height="5.93"/><rect class="cls-8" x="29.82" y="35.34" width="5.93" height="5.93"/><rect class="cls-4" x="29.82" y="24.91" width="5.93" height="5.93"/><rect class="cls-8" x="29.82" y="24.91" width="5.93" height="5.93"/><rect class="cls-4" x="29.82" y="45.78" width="5.93" height="5.93"/><rect class="cls-8" x="29.82" y="45.78" width="5.93" height="5.93"/><rect class="cls-4" x="29.82" y="24.91" width="5.93" height="5.93"/><rect class="cls-8" x="29.82" y="24.91" width="5.93" height="5.93"/><rect class="cls-4" x="29.82" y="35.34" width="5.93" height="5.93"/><rect class="cls-8" x="29.82" y="35.34" width="5.93" height="5.93"/><text class="cls-9" transform="translate(28.63 144.03) rotate(-0.01)">Q FABRIC</text></g></g></svg>
