<svg xmlns="http://www.w3.org/2000/svg" viewBox="0 0 92.03 97.27">
  <defs>
    <style>
      .cls-1 {
        isolation: isolate;
      }

      .cls-12, .cls-2 {
        fill: #98b4ca;
        stroke: #98b4ca;
      }

      .cls-2, .cls-3 {
        stroke-miterlimit: 10;
        stroke-width: 0.99px;
      }

      .cls-2 {
        opacity: 0.7;
      }

      .cls-3 {
        fill: #e9eff4;
      }

      .cls-3, .cls-4, .cls-5, .cls-6, .cls-7, .cls-9 {
        stroke: #484848;
      }

      .cls-4 {
        fill: #d8dee5;
      }

      .cls-12, .cls-4, .cls-5, .cls-6, .cls-7, .cls-8, .cls-9 {
        stroke-linecap: round;
        stroke-linejoin: round;
      }

      .cls-5 {
        fill: #fff;
      }

      .cls-6 {
        fill: #acddf3;
      }

      .cls-7 {
        fill: #4891ca;
      }

      .cls-8, .cls-9 {
        fill: none;
      }

      .cls-8 {
        stroke: #4891ca;
        stroke-width: 2px;
        mix-blend-mode: multiply;
      }

      .cls-10, .cls-11 {
        fill: #484848;
        font-family: BlairMdITCTTMedium, BlairMdITCTTMedium;
      }

      .cls-10 {
        font-size: 8.47px;
      }

      .cls-11 {
        font-size: 8.06px;
      }
    </style>
  </defs>
  <title>q_foresight</title>
  <g class="cls-1">
    <g id="Слой_1" data-name="Слой 1">
      <g>
        <g>
          <rect class="cls-2" x="2.54" y="2.54" width="88.99" height="94.23" rx="6" ry="6"/>
          <rect class="cls-3" x="0.49" y="0.49" width="88.99" height="94.23" rx="6" ry="6"/>
        </g>
        <g>
          <g id="Foresight">
            <g>
              <path class="cls-4" d="M332.71,415.76a4.11,4.11,0,0,1-2.26-7.86h.16a32.58,32.58,0,0,0-4.32-7.48l-.08.14a4.09,4.09,0,0,1-2.51.88,4.12,4.12,0,0,1-3.17-6.76,32,32,0,0,0-7.42-4.29,4.13,4.13,0,0,1-8-1.36,3.9,3.9,0,0,1,.07-.65l.06-.11a31.91,31.91,0,0,0-3.41-.25l-.85,0c-.73,0-1.45,0-2.16.08l-.64.06c-.47,0-.94.08-1.41.14h-.09a4.1,4.1,0,0,1-6,4.35,4.16,4.16,0,0,1-1.91-2.26,32.57,32.57,0,0,0-7.47,4.32,4.06,4.06,0,0,1-3.11,6.73,4.11,4.11,0,0,1-2.63-1l-.05.07h0l-.13.19a29.11,29.11,0,0,0-3.94,6.81h0l-.14.3a4.12,4.12,0,0,1-2.14,7.94,32,32,0,0,0,0,8.57,4.11,4.11,0,0,1,2.26,7.86h-.16a32.59,32.59,0,0,0,4.32,7.48l.08-.14a4.09,4.09,0,0,1,2.51-.88,4.12,4.12,0,0,1,3.17,6.76,32,32,0,0,0,7.42,4.29,4.13,4.13,0,0,1,8,1.36,3.89,3.89,0,0,1-.07.65l-.06.11a31.91,31.91,0,0,0,3.41.25l.85,0c.73,0,1.45,0,2.16-.08l.68-.07c.46,0,.92-.08,1.37-.14h.09a4.1,4.1,0,0,1,6-4.35,4.16,4.16,0,0,1,1.9,2.25,32.56,32.56,0,0,0,7.47-4.32,4.06,4.06,0,0,1,3.11-6.73,4.11,4.11,0,0,1,2.63,1l.05-.07h0c.29-.38.56-.77.83-1.16.12-.17.25-.34.37-.51q.6-.89,1.15-1.84c.14-.25.26-.5.4-.75a31.93,31.93,0,0,0,1.48-3.09h-.12a3.91,3.91,0,0,1-.59-.27,4.13,4.13,0,0,1,2.83-7.63A32,32,0,0,0,332.71,415.76Z" transform="translate(-255.74 -378.02)"/>
              <path class="cls-5" d="M328.95,420.06s-12.54,15.35-28,15.35-28-15.35-28-15.35,12.53-15.35,28-15.35S328.95,420.06,328.95,420.06Z" transform="translate(-255.74 -378.02)"/>
              <circle class="cls-6" cx="45.2" cy="42.05" r="15.35"/>
              <circle class="cls-7" cx="45.2" cy="42.05" r="9.94"/>
              <path class="cls-8" d="M301.29,414.95a5.42,5.42,0,0,1,5.4,5.44" transform="translate(-255.74 -378.02)"/>
            </g>
          </g>
          <path class="cls-9" d="M311.45,400.66a22.17,22.17,0,0,0-21.43,0" transform="translate(-255.74 -378.02)"/>
          <path class="cls-9" d="M311.45,439.27a22.17,22.17,0,0,1-21.43,0" transform="translate(-255.74 -378.02)"/>
        </g>
        <text class="cls-10" transform="translate(18 87.11)">Q</text>
        <text class="cls-11" transform="translate(28 87.11)">FORESIGHT</text>
      </g>
      <g>
        <g>
          <path class="cls-12" d="M337.69,385.67" transform="translate(-255.74 -378.02)"/>
          <path class="cls-12" d="M332.16,380.14" transform="translate(-255.74 -378.02)"/>
        </g>
        <g>
          <path class="cls-4" d="M337.15,385.12" transform="translate(-255.74 -378.02)"/>
          <path class="cls-4" d="M331.62,379.59" transform="translate(-255.74 -378.02)"/>
        </g>
      </g>
    </g>
  </g>
</svg>
