<svg xmlns="http://www.w3.org/2000/svg" viewBox="0 0 92.03 97.27">
  <defs>
    <style>
      .cls-1 {
        isolation: isolate;
      }

      .cls-2 {
        fill: #98b4ca;
        stroke: #98b4ca;
        opacity: 0.7;
      }

      .cls-11, .cls-12, .cls-2, .cls-3 {
        stroke-miterlimit: 10;
      }

      .cls-2, .cls-3 {
        stroke-width: 0.99px;
      }

      .cls-3 {
        fill: #e9eff4;
      }

      .cls-10, .cls-11, .cls-12, .cls-14, .cls-17, .cls-3 {
        stroke: #484848;
      }

      .cls-4, .cls-9 {
        fill: #fddba4;
      }

      .cls-12, .cls-5, .cls-8 {
        fill: #acddf3;
      }

      .cls-11, .cls-6, .cls-7 {
        fill: #d8dee5;
      }

      .cls-13, .cls-7, .cls-8, .cls-9 {
        mix-blend-mode: multiply;
      }

      .cls-10, .cls-13, .cls-17 {
        fill: none;
      }

      .cls-10, .cls-13, .cls-14, .cls-17 {
        stroke-linecap: round;
        stroke-linejoin: round;
      }

      .cls-13 {
        stroke: #acddf3;
        stroke-width: 2px;
      }

      .cls-14 {
        fill: #4891ca;
      }

      .cls-15 {
        font-size: 9.41px;
        fill: #484848;
        font-family: BlairMdITCTTMedium, BlairMdITCTTMedium;
      }

      .cls-16 {
        font-size: 8.95px;
      }

      .cls-17 {
        stroke-dasharray: 1 4;
      }
    </style>
  </defs>
  <title>q_insight</title>
  <g class="cls-1">
    <g id="Слой_1" data-name="Слой 1">
      <g>
        <g>
          <rect class="cls-2" x="2.54" y="2.54" width="88.99" height="94.23" rx="6" ry="6"/>
          <rect class="cls-3" x="0.49" y="0.49" width="88.99" height="94.23" rx="6" ry="6"/>
        </g>
        <g>
          <circle class="cls-4" cx="47.64" cy="44.29" r="28.23"/>
          <path class="cls-5" d="M299.58,356.3s10.2,15.15,34.24,4.36c15.42-6.92,13.73-24.23,13.73-24.23l-27.71.39Z" transform="translate(-271.68 -292.15)"/>
          <path class="cls-6" d="M319.33,308.21l0,28.62h28.25s-.65-12.23-7.56-19.61c-7.92-8.47-19.19-9-19.19-9Z" transform="translate(-271.68 -292.15)"/>
          <rect class="cls-7" x="47.63" y="40.2" width="28.24" height="4.1"/>
          <polygon class="cls-8" points="47.64 45.18 52.95 45.18 31.27 67.29 28.37 64.16 47.64 45.18"/>
          <polygon class="cls-9" points="47.63 44.29 42.64 48.73 42.55 16.56 47.63 16.07 47.63 44.29"/>
          <polyline class="cls-10" points="47.62 16.38 47.62 44.68 75.87 44.68"/>
          <line class="cls-10" x1="47.43" y1="44.68" x2="27.9" y2="64.16"/>
          <circle class="cls-10" cx="47.64" cy="44.29" r="28.23"/>
          <circle class="cls-11" cx="24.42" cy="33.28" r="11.94"/>
          <path class="cls-10" d="M295.9,341.73v-4.37a12.06,12.06,0,0,0,12-11.94,11.9,11.9,0,1,0-23.8,0" transform="translate(-271.68 -292.15)"/>
          <circle class="cls-12" cx="24.42" cy="33.28" r="9.58"/>
          <path class="cls-13" d="M295.1,319a6.54,6.54,0,0,1,7.54,6.46" transform="translate(-271.68 -292.15)"/>
          <rect class="cls-14" x="22.72" y="49.58" width="3.27" height="20.68"/>
        </g>
        <text class="cls-15" transform="translate(13.83 89.1)">Q<tspan class="cls-16" x="6.48" y="0" xml:space="preserve"> INSIGHT</tspan></text>
      </g>
      <g>
        <path class="cls-17" d="M349.8,318" transform="translate(-271.68 -292.15)"/>
        <path class="cls-17" d="M353.95,318" transform="translate(-271.68 -292.15)"/>
        <path class="cls-17" d="M358.09,318" transform="translate(-271.68 -292.15)"/>
        <path class="cls-17" d="M362.24,318" transform="translate(-271.68 -292.15)"/>
      </g>
    </g>
  </g>
</svg>
