<svg xmlns="http://www.w3.org/2000/svg" viewBox="0 0 77.35 93.27"><defs><style>.cls-1{fill:#96b3c9;}.cls-10,.cls-2,.cls-4,.cls-6{fill:none;}.cls-2{stroke:#96b3c9;}.cls-10,.cls-2,.cls-6{stroke-linecap:round;stroke-linejoin:round;}.cls-2,.cls-4,.cls-6{stroke-width:0.98px;}.cls-3{fill:#4891c9;}.cls-10,.cls-4,.cls-6{stroke:#474747;}.cls-4{stroke-miterlimit:10;}.cls-5{fill:#e9eff4;}.cls-7{fill:#d8dfe5;}.cls-8{fill:#a4c8e4;}.cls-9{fill:#fff;}</style></defs><title>Ресурс 4</title><g id="Слой_2" data-name="Слой 2"><g id="Слой_1-2" data-name="Слой 1"><path class="cls-1" d="M64.68,53.51V50.35c0-.5,0-1-.06-1.48a10.13,10.13,0,0,0-2.69-6.37,9.22,9.22,0,0,0-.72-.66V36c0-6.27-5.24-10.05-11-10.05H47.17a27.12,27.12,0,0,0,3.23-8.62V12.52c0-7.23-3.75-10.72-11-10.72s-11,3.48-11,10.72v4.76a27.13,27.13,0,0,0,3.23,8.62H28.31c-5.73,0-11,3.78-11,10.05v5.89a9.06,9.06,0,0,0-.72.66,10.14,10.14,0,0,0-2.69,6.37q-.06.73-.06,1.48v3.15H1.8V74.73l12,18H64.89l12-18V53.51Z"/><path class="cls-2" d="M64.68,53.51V50.35c0-.5,0-1-.06-1.48a10.13,10.13,0,0,0-2.69-6.37,9.22,9.22,0,0,0-.72-.66V36c0-6.27-5.24-10.05-11-10.05H47.17a27.12,27.12,0,0,0,3.23-8.62V12.52c0-7.23-3.75-10.72-11-10.72s-11,3.48-11,10.72v4.76a27.13,27.13,0,0,0,3.23,8.62H28.31c-5.73,0-11,3.78-11,10.05v5.89a9.06,9.06,0,0,0-.72.66,10.14,10.14,0,0,0-2.69,6.37q-.06.73-.06,1.48v3.15H1.8V74.73l12,18H64.89l12-18V53.51Z"/><path class="cls-3" d="M59.89,40.6v-6c0-6.27-5.24-10-11-10H27c-5.73,0-11,3.78-11,10v6Z"/><path class="cls-4" d="M59.89,40.6v-6c0-6.27-5.24-10-11-10H27c-5.73,0-11,3.78-11,10v6Z"/><polyline class="cls-5" points="58.16 52.2 75.55 52.2 75.55 73.42 63.58 91.47 12.45 91.47 0.49 73.42 0.49 52.2 17.88 52.2"/><polyline class="cls-6" points="58.16 52.2 75.55 52.2 75.55 73.42 63.58 91.47 12.45 91.47 0.49 73.42 0.49 52.2 17.88 52.2"/><path class="cls-7" d="M63.37,52.22V49c0-4-1.3-7.58-5.23-9.69A42.62,42.62,0,0,0,52,36.87c-1.83-.64-3.6-1.61-5.43-2.2l1.16.38c-2.09-.74-3.37-1.35-3.94-3.46a19.91,19.91,0,0,1-.25-5.17H32.33a19.87,19.87,0,0,1-.25,5.17c-.57,2.11-1.85,2.72-3.94,3.46l1.16-.38c-1.83.59-3.6,1.56-5.43,2.2a42.6,42.6,0,0,0-6.16,2.49C13.79,41.46,12.48,45,12.48,49v3.17"/><path class="cls-4" d="M63.37,52.22V49c0-4-1.3-7.58-5.23-9.69A42.62,42.62,0,0,0,52,36.87c-1.83-.64-3.6-1.61-5.43-2.2l1.16.38c-2.09-.74-3.37-1.35-3.94-3.46a19.91,19.91,0,0,1-.25-5.17H32.33a19.87,19.87,0,0,1-.25,5.17c-.57,2.11-1.85,2.72-3.94,3.46l1.16-.38c-1.83.59-3.6,1.56-5.43,2.2a42.6,42.6,0,0,0-6.16,2.49C13.79,41.46,12.48,45,12.48,49v3.17"/><path class="cls-8" d="M58.15,39.36A42.56,42.56,0,0,0,52,36.87c-1.83-.64-3.6-1.61-5.43-2.2l1.16.38c-2-.71-3.25-1.31-3.85-3.2-3.25,2.33-8.29,1.93-11.88,0-.61,1.87-1.85,2.47-3.84,3.18l1.16-.38c-1.83.59-3.6,1.56-5.43,2.2a42.56,42.56,0,0,0-6.16,2.49C13.79,41.46,12.48,45,12.48,49v3.17H63.37V49c0-4-1.3-7.58-5.23-9.69"/><path class="cls-4" d="M58.15,39.36A42.56,42.56,0,0,0,52,36.87c-1.83-.64-3.6-1.61-5.43-2.2l1.16.38c-2-.71-3.25-1.31-3.85-3.2-3.25,2.33-8.29,1.93-11.88,0-.61,1.87-1.85,2.47-3.84,3.18l1.16-.38c-1.83.59-3.6,1.56-5.43,2.2a42.56,42.56,0,0,0-6.16,2.49C13.79,41.46,12.48,45,12.48,49v3.17H63.37V49C63.37,45,62.07,41.46,58.15,39.36Z"/><path class="cls-5" d="M49.09,11.21C49.09,4,45.34.49,38.11.49s-11,3.48-11,10.72V16C29,24.31,32,26.69,32,26.69a16.22,16.22,0,0,0,6,1.19,16.53,16.53,0,0,0,6.11-1.19S47.26,24.31,49.09,16Z"/><path class="cls-4" d="M49.09,11.21C49.09,4,45.34.49,38.11.49s-11,3.48-11,10.72V16C29,24.31,32,26.69,32,26.69a16.22,16.22,0,0,0,6,1.19,16.53,16.53,0,0,0,6.11-1.19S47.26,24.31,49.09,16Z"/><polyline class="cls-9" points="58.43 73.44 62.27 66.4 62.27 59.06 58.16 59.06"/><polyline class="cls-6" points="58.43 73.44 62.27 66.4 62.27 59.06 58.16 59.06"/><polyline class="cls-9" points="17.61 73.44 13.76 66.4 13.76 59.06 17.88 59.06"/><polyline class="cls-6" points="17.61 73.44 13.76 66.4 13.76 59.06 17.88 59.06"/><path class="cls-9" d="M58.15,48.54V73.25H17.88V48.54a3.59,3.59,0,0,1,3.5-3.66H54.72a3.54,3.54,0,0,1,3.43,3.66"/><path class="cls-6" d="M58.15,48.54V73.25H17.88V48.54a3.59,3.59,0,0,1,3.5-3.66H54.72A3.54,3.54,0,0,1,58.15,48.54Z"/><polyline class="cls-10" points="31.02 54.24 23.98 59.76 30.82 65.12"/><polyline class="cls-10" points="44.06 54.24 51.11 59.76 44.26 65.12"/><line class="cls-10" x1="41.2" y1="51.23" x2="33.85" y2="68.14"/></g></g></svg>